STARTFONT 2.1
COMMENT 
COMMENT Converted from TrueType font "cour.ttf" by "ttf2bdf.exe 2.2".
COMMENT 
FONT -FreeType-Courier New-Medium-R-Normal--21-120-128-128-P-98-ISO10646-1
SIZE 12 128 128
FONTBOUNDINGBOX 25 56 -2 -10
STARTPROPERTIES 27
FAMILY_NAME "Courier New"
DEFAULT_CHAR -1
FOUNDRY "FreeType"
COPYRIGHT "Typeface © The Monotype Corporation plc. Data © The Monotype Corporation plc/Type Solutions Inc. 1990-1994. All Rights Reserved"
CODEPAGE "MS Windows 1250 Central European"
ENC_MODE 2
CREATION_YEAR 2001
WEIGHT_NAME "Medium"
SLANT "R"
SETWIDTH_NAME "Normal"
SPACING "P"
HI_VERSION 1
FONTNAME_REGISTRY "-"
CHARSET_REGISTRY "ISO10646"
CHARSET_ENCODING "1"
BREAK_CHAR 32
PIXEL_SIZE 21
POINT_SIZE 120
FONT_ASCENT 46
FONT_DESCENT 10
RESOLUTION_X 128
RESOLUTION_Y 128
AVERAGE_WIDTH 98
X_HEIGHT 24
CAP_HEIGHT 37
_TTF_FONTFILE "cour.ttf"
_TTF_PSNAME "CourierNewPSMT"
ENDPROPERTIES
CHARS 191
STARTCHAR 0020.uni0020
ENCODING 32
SWIDTH 899 0
DWIDTH 19 0
BBX 0 0 0 0
BITMAP
ENDCHAR
STARTCHAR 0021.uni0021
ENCODING 33
SWIDTH 974 0
DWIDTH 21 0
BBX 7 37 7 0
BITMAP
7C00
7C00
7C00
7C00
7C00
7C00
7C00
7C00
7C00
7C00
7C00
7C00
7C00
7C00
7C00
7C00
7C00
7C00
7C00
7C00
7C00
7C00
7C00
7C00
7C00
7C00
7C00
0000
0000
0000
7C00
FE00
FE00
FE00
FE00
FE00
7C00
ENDCHAR
STARTCHAR 0022.uni0022
ENCODING 34
SWIDTH 974 0
DWIDTH 21 0
BBX 17 13 2 24
BITMAP
FE3F8000
FE3F8000
FE3F8000
FE3F8000
FE3F8000
7C1F0000
7C1F0000
7C1F0000
7C1F0000
7C1F0000
380E0000
380E0000
380E0000
ENDCHAR
STARTCHAR 0023.uni0023
ENCODING 35
SWIDTH 974 0
DWIDTH 21 0
BBX 23 33 -2 -3
BITMAP
01F07C00
01F07C00
01F07C00
01F07C00
01F07C00
01F07C00
01F07C00
01F07C00
3FFFFE00
3FFFFE00
3FFFFE00
3FFFFE00
3FFFFE00
07C1F000
07C1F000
07C1F000
07C1F000
07C1F000
07C1F000
FFFFFC00
FFFFFC00
FFFFFC00
FFFFFC00
FFFFFC00
0F83E000
0F83E000
0F83E000
0F83E000
0F83E000
0F83E000
0F83E000
0F83E000
0F83E000
ENDCHAR
STARTCHAR 0024.uni0024
ENCODING 36
SWIDTH 974 0
DWIDTH 21 0
BBX 21 51 0 -6
BITMAP
01CE0000
01CE0000
01CE0000
01CE0000
01CE0000
01CE0000
01CE0000
01CE0000
01FE0000
07FF0000
1FFFC000
3FFFE000
7FCFF000
F9CFF800
F1CFF800
F1CE7800
F1CE0000
F1CE0000
F1CE0000
F9CE0000
7FCE0000
3FCE0000
3FCE0000
0FEE0000
03FE0000
01FF0000
01FF8000
01FFC000
01FFE000
01DFF000
01CFF800
01CFF800
01CEF800
01CE7800
F1CE7800
F1CE7800
F9CE7800
F9CE7800
FDCEF800
7DCEF000
3FFFF000
3FFFF000
1FFFE000
0FFFC000
03FF0000
01CE0000
01CE0000
01CE0000
01CE0000
01CE0000
01CE0000
ENDCHAR
STARTCHAR 0025.uni0025
ENCODING 37
SWIDTH 974 0
DWIDTH 21 0
BBX 22 31 0 -2
BITMAP
00007800
1F007800
3F80F000
7FC0F000
F1E1E000
E0E1E000
E0E3C000
E0E78000
F1E78000
7FCF0000
3F8F0000
1F1E0000
003C0000
003C0000
00780000
00780000
00F00000
01E00000
01E00000
03C00000
03C3E000
0787F000
0F0FF800
0F1E3C00
1E1C1C00
1E1C1C00
3C1C1C00
781E3C00
780FF800
F007F000
F003E000
ENDCHAR
STARTCHAR 0026.uni0026
ENCODING 38
SWIDTH 974 0
DWIDTH 21 0
BBX 21 37 0 0
BITMAP
03F80000
0FFE0000
1FFF0000
1FFF0000
3E1F0000
7C0F8000
78078000
78078000
78078000
3C0F0000
3C0E0000
1E1E0000
1E1C0000
0F3C0000
07F80000
07F80000
03F00000
03E00000
07E07800
07E07800
0FF0F800
1E71F000
3E79E000
3C3FE000
7C3FC000
781FC000
781F8000
F00F8000
F00F0000
F01F0000
F81F8000
F83F8000
FC7FC000
7FFFE000
7FF9F800
3FF0F800
0FC0F800
ENDCHAR
STARTCHAR 0027.uni0027
ENCODING 39
SWIDTH 974 0
DWIDTH 21 0
BBX 7 13 7 24
BITMAP
FE00
FE00
FE00
FE00
FE00
7C00
7C00
7C00
7C00
7C00
3800
3800
3800
ENDCHAR
STARTCHAR 0028.uni0028
ENCODING 40
SWIDTH 974 0
DWIDTH 21 0
BBX 9 48 8 -6
BITMAP
0780
0780
0F00
0F00
1E00
1E00
1E00
3C00
3C00
3C00
7800
7800
7800
F000
F000
F000
F000
F000
F000
F000
F000
F000
F000
F000
F000
F000
F000
F000
F000
F000
F000
F000
F000
F000
F000
7800
7800
7800
3C00
3C00
3C00
1E00
1E00
1E00
0F00
0F00
0780
0780
ENDCHAR
STARTCHAR 0029.uni0029
ENCODING 41
SWIDTH 974 0
DWIDTH 21 0
BBX 9 48 8 -6
BITMAP
F000
F000
7800
7800
3C00
3C00
3C00
1E00
1E00
1E00
0F00
0F00
0F00
0780
0780
0780
0780
0780
0780
0780
0780
0780
0780
0780
0780
0780
0780
0780
0780
0780
0780
0780
0780
0780
0780
0F00
0F00
0F00
1E00
1E00
1E00
3C00
3C00
3C00
7800
7800
F000
F000
ENDCHAR
STARTCHAR 002A.uni002A
ENCODING 42
SWIDTH 974 0
DWIDTH 21 0
BBX 18 20 2 5
BITMAP
01E00000
71E38000
79E78000
7DEF8000
3FFF0000
1FFE0000
0FFC0000
07F80000
FFFFC000
FFFFC000
FFFFC000
FFFFC000
07F80000
0FFC0000
1FFE0000
3FFF0000
7DEF8000
79E78000
71E38000
01E00000
ENDCHAR
STARTCHAR 002B.uni002B
ENCODING 43
SWIDTH 974 0
DWIDTH 21 0
BBX 18 19 2 2
BITMAP
01E00000
01E00000
01E00000
01E00000
01E00000
01E00000
01E00000
FFFFC000
FFFFC000
FFFFC000
FFFFC000
01E00000
01E00000
01E00000
01E00000
01E00000
01E00000
01E00000
01E00000
ENDCHAR
STARTCHAR 002C.uni002C
ENCODING 44
SWIDTH 974 0
DWIDTH 21 0
BBX 8 13 3 -6
BITMAP
0F00
0F00
1E00
1E00
1E00
3C00
3C00
7800
7800
7000
F000
E000
C000
ENDCHAR
STARTCHAR 002D.uni002D
ENCODING 45
SWIDTH 974 0
DWIDTH 21 0
BBX 18 4 2 10
BITMAP
FFFFC000
FFFFC000
FFFFC000
FFFFC000
ENDCHAR
STARTCHAR 002E.uni002E
ENCODING 46
SWIDTH 974 0
DWIDTH 21 0
BBX 6 6 7 0
BITMAP
7800
FC00
FC00
FC00
FC00
7800
ENDCHAR
STARTCHAR 002F.uni002F
ENCODING 47
SWIDTH 974 0
DWIDTH 21 0
BBX 22 38 0 -2
BITMAP
00003C00
00003C00
00007800
00007800
0000F000
0000F000
0001E000
0001E000
0003C000
0003C000
00078000
00078000
000F0000
000F0000
001E0000
001E0000
003C0000
003C0000
00780000
00780000
00F00000
00F00000
01E00000
01E00000
03C00000
03C00000
07800000
07800000
0F000000
0F000000
1E000000
1E000000
3C000000
3C000000
78000000
78000000
F0000000
F0000000
ENDCHAR
STARTCHAR 0030.uni0030
ENCODING 48
SWIDTH 974 0
DWIDTH 21 0
BBX 21 37 0 0
BITMAP
07FF0000
1FFFC000
3FFFE000
3FFFE000
7C01F000
7800F000
7800F000
F800F800
F0007800
F0007800
F0007800
F0007800
F0007800
F0007800
F0007800
F0007800
F0007800
F0007800
F0007800
F0007800
F0007800
F0007800
F0007800
F0007800
F0007800
F0007800
F0007800
F0007800
F0007800
F800F800
7800F000
7800F000
7E01F000
3FFFE000
3FFFE000
1FFFC000
07FF0000
ENDCHAR
STARTCHAR 0031.uni0031
ENCODING 49
SWIDTH 974 0
DWIDTH 21 0
BBX 20 37 0 0
BITMAP
00780000
00F80000
01F80000
03F80000
07F80000
0FF80000
1F780000
3E780000
7C780000
F8780000
F0780000
E0780000
00780000
00780000
00780000
00780000
00780000
00780000
00780000
00780000
00780000
00780000
00780000
00780000
00780000
00780000
00780000
00780000
00780000
00780000
00780000
00780000
00780000
7FFFF000
7FFFF000
7FFFF000
7FFFF000
ENDCHAR
STARTCHAR 0032.uni0032
ENCODING 50
SWIDTH 974 0
DWIDTH 21 0
BBX 21 37 0 0
BITMAP
07FE0000
0FFF0000
1FFF8000
3FFFC000
3C03C000
7801E000
F001F000
F000F000
F000F800
F0007800
F0007800
F0007800
00007800
00007800
0000F800
0000F000
0001F000
0003E000
0007C000
000F8000
001F0000
003E0000
007C0000
00F80000
01F00000
03E00000
07C00000
0F800000
1F000000
3E003800
7C003800
F8003800
F0003800
FFFFF800
FFFFF800
FFFFF800
FFFFF800
ENDCHAR
STARTCHAR 0033.uni0033
ENCODING 51
SWIDTH 974 0
DWIDTH 21 0
BBX 21 37 0 0
BITMAP
07FF0000
1FFFC000
3FFFE000
3FFFF000
7C03F000
7801F800
F800F800
F0007800
F0007800
00007800
00007800
00007800
00007800
0000F800
0001F800
003FF000
003FF000
003FE000
003F8000
0007C000
0003E000
0001F000
0001F000
0000F800
0000F800
00007800
00007800
00007800
00007800
F0007800
F800F800
F800F800
7C01F000
7FFFF000
3FFFE000
1FFFC000
07FF0000
ENDCHAR
STARTCHAR 0034.uni0034
ENCODING 52
SWIDTH 974 0
DWIDTH 21 0
BBX 20 37 1 0
BITMAP
000F8000
001F8000
001F8000
003F8000
003F8000
007F8000
007F8000
00FF8000
00F78000
01E78000
01E78000
03C78000
03C78000
07878000
07878000
0F078000
0F078000
1E078000
1E078000
3C078000
3C078000
FFFFF000
FFFFF000
FFFFF000
FFFFF000
00078000
00078000
00078000
00078000
00078000
00078000
00078000
00078000
001FE000
001FE000
001FE000
001FE000
ENDCHAR
STARTCHAR 0035.uni0035
ENCODING 53
SWIDTH 974 0
DWIDTH 21 0
BBX 21 37 0 0
BITMAP
FFFFF800
FFFFF800
FFFFF800
FFFFF800
F0000000
F0000000
F0000000
F0000000
F0000000
F0000000
F0000000
F0000000
F0000000
F1FE0000
F7FF8000
FFFFC000
FFFFE000
FE03E000
FC01F000
F800F000
F000F800
00007800
00007800
00007800
00007800
00007800
00007800
00007800
00007800
F000F800
F800F800
7C01F000
7E03F000
3FFFE000
1FFFC000
0FFF8000
03FE0000
ENDCHAR
STARTCHAR 0036.uni0036
ENCODING 54
SWIDTH 974 0
DWIDTH 21 0
BBX 21 37 0 0
BITMAP
01FC0000
07FF0000
1FFFC000
3FFFE000
7E03F000
7C01F000
F800F800
F0007800
F0007800
F0000000
F0000000
F0000000
F0000000
F1FE0000
F7FF8000
FFFFC000
FFFFE000
FE03E000
FC01F000
F800F000
F800F800
F0007800
F0007800
F0007800
F0007800
F0007800
F0007800
F0007800
F0007800
F800F800
7800F000
7C01F000
3E03E000
3FFFE000
1FFFC000
0FFF8000
03FE0000
ENDCHAR
STARTCHAR 0037.uni0037
ENCODING 55
SWIDTH 974 0
DWIDTH 21 0
BBX 21 37 0 0
BITMAP
FFFFF800
FFFFF800
FFFFF800
FFFFF800
F000F800
F000F000
F001F000
F001E000
0003E000
0003C000
0007C000
00078000
000F8000
000F0000
001F0000
001E0000
003E0000
003C0000
007C0000
00780000
00F80000
00F00000
01F00000
01E00000
03E00000
03C00000
07C00000
07800000
0F800000
0F000000
1F000000
1E000000
3E000000
3C000000
7C000000
78000000
78000000
ENDCHAR
STARTCHAR 0038.uni0038
ENCODING 56
SWIDTH 974 0
DWIDTH 21 0
BBX 21 37 0 0
BITMAP
03FE0000
0FFF8000
1FFFC000
3FFFE000
3F07E000
7C01F000
7800F000
F800F800
F0007800
F0007800
F0007800
F0007800
F800F800
7800F000
7C01F000
3F07E000
1FFFC000
07FF0000
1FFFC000
3FFFE000
3E03E000
7C01F000
7800F000
F800F800
F0007800
F0007800
F0007800
F0007800
F0007800
F0007800
F800F800
7800F000
7E03F000
3FFFE000
1FFFC000
0FFF8000
03FE0000
ENDCHAR
STARTCHAR 0039.uni0039
ENCODING 57
SWIDTH 974 0
DWIDTH 21 0
BBX 21 37 0 0
BITMAP
03FE0000
0FFF8000
1FFFC000
3FFFE000
3E03E000
7C01F000
7800F000
F800F800
F0007800
F0007800
F0007800
F0007800
F0007800
F0007800
F0007800
F0007800
F800F800
7800F800
7C01F800
3E03F800
3FFFF800
1FFFF800
0FFF7800
03FC7800
00007800
00007800
00007800
00007800
F0007800
F0007800
F800F800
7C01F000
7E03F000
3FFFE000
1FFFC000
07FF0000
01FC0000
ENDCHAR
STARTCHAR 003A.uni003A
ENCODING 58
SWIDTH 974 0
DWIDTH 21 0
BBX 6 17 7 0
BITMAP
7800
FC00
FC00
FC00
FC00
7800
0000
0000
0000
0000
0000
7800
FC00
FC00
FC00
FC00
7800
ENDCHAR
STARTCHAR 003B.uni003B
ENCODING 59
SWIDTH 974 0
DWIDTH 21 0
BBX 10 23 3 -6
BITMAP
0780
0FC0
0FC0
0FC0
0FC0
0780
0000
0000
0000
0000
0F00
0F00
1E00
1E00
1E00
3C00
3C00
7800
7800
7000
F000
E000
C000
ENDCHAR
STARTCHAR 003C.uni003C
ENCODING 60
SWIDTH 974 0
DWIDTH 21 0
BBX 21 17 0 3
BITMAP
00003800
0001F800
000FF800
007FF800
03FFC000
1FFE0000
FFF00000
FF800000
FE000000
FF800000
FFF00000
1FFE0000
03FFC000
007FF800
000FF800
0001F800
00003800
ENDCHAR
STARTCHAR 003D.uni003D
ENCODING 61
SWIDTH 974 0
DWIDTH 21 0
BBX 17 12 2 8
BITMAP
FFFF8000
FFFF8000
FFFF8000
FFFF8000
00000000
00000000
00000000
00000000
FFFF8000
FFFF8000
FFFF8000
FFFF8000
ENDCHAR
STARTCHAR 003E.uni003E
ENCODING 62
SWIDTH 974 0
DWIDTH 21 0
BBX 21 17 0 3
BITMAP
E0000000
FC000000
FF800000
FFF00000
1FFE0000
03FFC000
007FF800
000FF800
0003F800
000FF800
007FF800
03FFC000
1FFE0000
FFF00000
FF800000
FC000000
E0000000
ENDCHAR
STARTCHAR 003F.uni003F
ENCODING 63
SWIDTH 974 0
DWIDTH 21 0
BBX 21 37 0 0
BITMAP
03FE0000
0FFF8000
1FFFC000
3FFFE000
3F07E000
7C01F000
7800F000
F800F800
F0007800
F0007800
F0007800
00007800
0000F800
0000F000
0001F000
0007E000
000FC000
003F0000
007E0000
007C0000
00780000
00780000
00780000
00780000
00780000
00780000
00780000
00780000
00000000
00000000
00000000
00780000
00FC0000
00FC0000
00FC0000
00FC0000
00780000
ENDCHAR
STARTCHAR 0040.uni0040
ENCODING 64
SWIDTH 974 0
DWIDTH 21 0
BBX 21 30 0 0
BITMAP
01F00000
07FC0000
0FFE0000
1FFF0000
3E0F8000
7807C000
7803E000
F001F000
F01FF000
F03FF000
F03FF000
F07FF800
F0787800
F0703800
F0703800
F0703800
F0703800
F0787800
F07FF800
F03FF000
F03FF000
F01FE000
F0000000
F0000000
F8000000
7C000000
7FFF8000
3FFF8000
1FFF8000
07FF8000
ENDCHAR
STARTCHAR 0041.uni0041
ENCODING 65
SWIDTH 1031 0
DWIDTH 22 0
BBX 23 37 0 0
BITMAP
007C0000
007C0000
00FE0000
00FE0000
00FE0000
00FE0000
01FF0000
01EF0000
01EF0000
01EF0000
03EF8000
03C78000
03C78000
03C78000
07C7C000
0783C000
0783C000
0783C000
0F83E000
0F01E000
0F01E000
0F01E000
1F01F000
1E00F000
1E00F000
1FFFF000
3FFFF800
3FFFF800
3FFFF800
3C007800
7C007C00
7C007C00
78003C00
FC007E00
FC007E00
FC007E00
FC007E00
ENDCHAR
STARTCHAR 0042.uni0042
ENCODING 66
SWIDTH 974 0
DWIDTH 21 0
BBX 21 37 0 0
BITMAP
FFFC0000
FFFE0000
FFFF0000
FFFF0000
3C0F8000
3C07C000
3C03C000
3C03C000
3C03C000
3C03C000
3C03C000
3C03C000
3C07C000
3C0FC000
3FFF8000
3FFF0000
3FFF8000
3FFFC000
3C07E000
3C03F000
3C01F000
3C00F800
3C007800
3C007800
3C007800
3C007800
3C007800
3C007800
3C007800
3C007800
3C00F800
3C01F000
3C03F000
FFFFE000
FFFFC000
FFFF8000
FFFF0000
ENDCHAR
STARTCHAR 0043.uni0043
ENCODING 67
SWIDTH 974 0
DWIDTH 21 0
BBX 20 37 0 0
BITMAP
00F80000
03FE0000
07FF0000
0FFF8000
0F8F8000
1F07C000
1E03C000
3C01E000
3C01E000
7800F000
7800F000
7800F000
7800F000
F0000000
F0000000
F0000000
F0000000
F0000000
F0000000
F0000000
F0000000
F0000000
F0000000
F0000000
7800F000
7800F000
7800F000
7800F000
3C01E000
3C01E000
1E03C000
1F07C000
0F8F8000
0FFF8000
07FF0000
03FE0000
00F80000
ENDCHAR
STARTCHAR 0044.uni0044
ENCODING 68
SWIDTH 974 0
DWIDTH 21 0
BBX 21 37 0 0
BITMAP
FFF80000
FFFE0000
FFFF0000
FFFF8000
3C0F8000
3C07C000
3C03C000
3C01E000
3C01E000
3C00F000
3C00F000
3C00F000
3C00F000
3C007800
3C007800
3C007800
3C007800
3C007800
3C007800
3C007800
3C007800
3C007800
3C007800
3C007800
3C00F000
3C00F000
3C00F000
3C00F000
3C01E000
3C01E000
3C03C000
3C07C000
3C0F8000
FFFF8000
FFFF0000
FFFE0000
FFF80000
ENDCHAR
STARTCHAR 0045.uni0045
ENCODING 69
SWIDTH 974 0
DWIDTH 21 0
BBX 21 37 0 0
BITMAP
FFFFF800
FFFFF800
FFFFF800
FFFFF800
3C007800
3C007800
3C007800
3C000000
3C000000
3C000000
3C000000
3C000000
3C000000
3C03C000
3C03C000
3FFFC000
3FFFC000
3FFFC000
3FFFC000
3C03C000
3C03C000
3C000000
3C000000
3C000000
3C000000
3C000000
3C000000
3C000000
3C000000
3C000000
3C007800
3C007800
3C007800
FFFFF800
FFFFF800
FFFFF800
FFFFF800
ENDCHAR
STARTCHAR 0046.uni0046
ENCODING 70
SWIDTH 974 0
DWIDTH 21 0
BBX 21 37 0 0
BITMAP
FFFFF800
FFFFF800
FFFFF800
FFFFF800
3C007800
3C007800
3C007800
3C000000
3C000000
3C000000
3C000000
3C000000
3C000000
3C03C000
3C03C000
3FFFC000
3FFFC000
3FFFC000
3FFFC000
3C03C000
3C03C000
3C000000
3C000000
3C000000
3C000000
3C000000
3C000000
3C000000
3C000000
3C000000
3C000000
3C000000
3C000000
FF000000
FF000000
FF000000
FF000000
ENDCHAR
STARTCHAR 0047.uni0047
ENCODING 71
SWIDTH 974 0
DWIDTH 21 0
BBX 21 37 0 0
BITMAP
00F80000
03FE0000
07FF0000
0FFF8000
0F8F8000
1F07C000
1E03C000
3C01E000
3C01E000
7800F000
7800F000
7800F000
7800F000
F0000000
F0000000
F0000000
F0000000
F0000000
F0000000
F0000000
F00FF800
F00FF800
F00FF800
F00FF800
7800F000
7800F000
7800F000
7800F000
3C01E000
3C01E000
1E03C000
1F07C000
0F8F8000
0FFF8000
07FF0000
03FE0000
00F80000
ENDCHAR
STARTCHAR 0048.uni0048
ENCODING 72
SWIDTH 974 0
DWIDTH 21 0
BBX 21 37 0 0
BITMAP
FE03F800
FE03F800
FE03F800
FE03F800
7800F000
7800F000
7800F000
7800F000
7800F000
7800F000
7800F000
7800F000
7800F000
7800F000
7800F000
7800F000
7800F000
7FFFF000
7FFFF000
7FFFF000
7FFFF000
7800F000
7800F000
7800F000
7800F000
7800F000
7800F000
7800F000
7800F000
7800F000
7800F000
7800F000
7800F000
FE03F800
FE03F800
FE03F800
FE03F800
ENDCHAR
STARTCHAR 0049.uni0049
ENCODING 73
SWIDTH 974 0
DWIDTH 21 0
BBX 20 37 1 0
BITMAP
FFFFF000
FFFFF000
FFFFF000
FFFFF000
00F00000
00F00000
00F00000
00F00000
00F00000
00F00000
00F00000
00F00000
00F00000
00F00000
00F00000
00F00000
00F00000
00F00000
00F00000
00F00000
00F00000
00F00000
00F00000
00F00000
00F00000
00F00000
00F00000
00F00000
00F00000
00F00000
00F00000
00F00000
00F00000
FFFFF000
FFFFF000
FFFFF000
FFFFF000
ENDCHAR
STARTCHAR 004A.uni004A
ENCODING 74
SWIDTH 974 0
DWIDTH 21 0
BBX 21 37 0 0
BITMAP
FFFFF800
FFFFF800
FFFFF800
FFFFF800
F0007800
F0007800
F0007800
F0007800
00007800
00007800
00007800
00007800
00007800
00007800
00007800
00007800
00007800
00007800
00007800
00007800
00007800
00007800
F0007800
F0007800
F0007800
F0007800
F0007800
F0007800
7800F000
7800F000
3C01E000
3C01E000
1F07C000
1FFFC000
0FFF8000
07FF0000
01FC0000
ENDCHAR
STARTCHAR 004B.uni004B
ENCODING 75
SWIDTH 974 0
DWIDTH 21 0
BBX 21 37 0 0
BITMAP
FE03F800
FE03F800
FE03F800
FE03F800
7801E000
7803C000
7803C000
78078000
78078000
780F0000
780F0000
781E0000
781E0000
783C0000
783C0000
78780000
78780000
78F00000
78F00000
79F00000
79F80000
7BF80000
7BFC0000
7FBC0000
7F1E0000
7F0F0000
7E0F0000
7E078000
7C078000
7C03C000
7801E000
7801E000
7800F000
FE01F800
FE01F800
FE01F800
FE01F800
ENDCHAR
STARTCHAR 004C.uni004C
ENCODING 76
SWIDTH 974 0
DWIDTH 21 0
BBX 21 37 0 0
BITMAP
FE000000
FE000000
FE000000
FE000000
78000000
78000000
78000000
78000000
78000000
78000000
78000000
78000000
78000000
78000000
78000000
78000000
78000000
78000000
78000000
78000000
78000000
78000000
78000000
78000000
78000000
78000000
78000000
78000000
78000000
78007800
78007800
78007800
78007800
FFFFF800
FFFFF800
FFFFF800
FFFFF800
ENDCHAR
STARTCHAR 004D.uni004D
ENCODING 77
SWIDTH 974 0
DWIDTH 21 0
BBX 21 37 0 0
BITMAP
FF8FF800
FF8FF800
FF8FF800
FF8FF800
7F07F000
7F07F000
7F8FF000
7F8FF000
7BDEF000
7BDEF000
79DCF000
79FCF000
79FCF000
78F8F000
78F8F000
7870F000
7870F000
7870F000
7800F000
7800F000
7800F000
7800F000
7800F000
7800F000
7800F000
7800F000
7800F000
7800F000
7800F000
7800F000
7800F000
7800F000
7800F000
FE03F800
FE03F800
FE03F800
FE03F800
ENDCHAR
STARTCHAR 004E.uni004E
ENCODING 78
SWIDTH 974 0
DWIDTH 21 0
BBX 21 37 0 0
BITMAP
FE03F800
FE03F800
FE03F800
FE03F800
7800F000
7C00F000
7C00F000
7E00F000
7E00F000
7F00F000
7F00F000
7F80F000
7F80F000
7BC0F000
7BC0F000
79E0F000
79E0F000
78F0F000
78F0F000
7878F000
7878F000
783CF000
783CF000
781EF000
781EF000
780FF000
780FF000
7807F000
7807F000
7803F000
7803F000
7801F000
7801F000
FE03F800
FE03F800
FE03F800
FE03F800
ENDCHAR
STARTCHAR 004F.uni004F
ENCODING 79
SWIDTH 974 0
DWIDTH 21 0
BBX 21 37 0 0
BITMAP
00F80000
03FE0000
07FF0000
0FFF8000
0F8F8000
1F07C000
1E03C000
3C01E000
3C01E000
7800F000
7800F000
7800F000
7800F000
F0007800
F0007800
F0007800
F0007800
F0007800
F0007800
F0007800
F0007800
F0007800
F0007800
F0007800
7800F000
7800F000
7800F000
7800F000
3C01E000
3C01E000
1E03C000
1F07C000
0F8F8000
0FFF8000
07FF0000
03FE0000
00F80000
ENDCHAR
STARTCHAR 0050.uni0050
ENCODING 80
SWIDTH 974 0
DWIDTH 21 0
BBX 21 37 0 0
BITMAP
FFFE0000
FFFF8000
FFFFC000
FFFFE000
3C03E000
3C01F000
3C00F000
3C00F800
3C007800
3C007800
3C007800
3C007800
3C007800
3C00F800
3C00F000
3C01F000
3C03E000
3FFFE000
3FFFC000
3FFF8000
3FFF0000
3C000000
3C000000
3C000000
3C000000
3C000000
3C000000
3C000000
3C000000
3C000000
3C000000
3C000000
3C000000
FF000000
FF000000
FF000000
FF000000
ENDCHAR
STARTCHAR 0051.uni0051
ENCODING 81
SWIDTH 974 0
DWIDTH 21 0
BBX 21 37 0 0
BITMAP
00F80000
03FE0000
07FF0000
0FFF8000
0F8F8000
1F07C000
1E03C000
3C01E000
3C01E000
7800F000
7800F000
7800F000
7800F000
F0007800
F0007800
F0007800
F0007800
F0007800
F0007800
F0007800
F0007800
F0007800
F0007800
F0007800
7800F000
7878F000
7878F000
787CF000
3C3FE000
3C1FE000
1E0FC000
1F07C000
0F8FE000
0FFFF000
07FFF000
03FEF800
00F87800
ENDCHAR
STARTCHAR 0052.uni0052
ENCODING 82
SWIDTH 974 0
DWIDTH 21 0
BBX 21 37 0 0
BITMAP
FFFE0000
FFFF8000
FFFFC000
FFFFE000
3C03E000
3C01F000
3C00F000
3C00F800
3C007800
3C007800
3C007800
3C007800
3C007800
3C00F800
3C00F000
3C01F000
3C03E000
3FFFE000
3FFFC000
3FFF8000
3FFF0000
3C0F0000
3C0F0000
3C0F0000
3C078000
3C078000
3C078000
3C03C000
3C03C000
3C03C000
3C01E000
3C01E000
3C01E000
FF03F800
FF03F800
FF03F800
FF03F800
ENDCHAR
STARTCHAR 0053.uni0053
ENCODING 83
SWIDTH 974 0
DWIDTH 21 0
BBX 21 37 0 0
BITMAP
07FF0000
1FFFC000
3FFFE000
7FFFF000
7801F000
F000F800
F0007800
F0007800
F0007800
F0000000
F0000000
F8000000
7E000000
7F800000
3FE00000
0FF00000
03FC0000
00FF0000
003F8000
001FE000
0007F000
0001F800
0000F800
00007800
00007800
00007800
F0007800
F0007800
F0007800
F0007800
F0007800
F800F800
7C01F000
7FFFF000
3FFFE000
1FFFC000
07FF0000
ENDCHAR
STARTCHAR 0054.uni0054
ENCODING 84
SWIDTH 974 0
DWIDTH 21 0
BBX 20 37 1 0
BITMAP
FFFFF000
FFFFF000
FFFFF000
FFFFF000
F0F0F000
F0F0F000
00F00000
00F00000
00F00000
00F00000
00F00000
00F00000
00F00000
00F00000
00F00000
00F00000
00F00000
00F00000
00F00000
00F00000
00F00000
00F00000
00F00000
00F00000
00F00000
00F00000
00F00000
00F00000
00F00000
00F00000
00F00000
00F00000
00F00000
03FC0000
03FC0000
03FC0000
03FC0000
ENDCHAR
STARTCHAR 0055.uni0055
ENCODING 85
SWIDTH 974 0
DWIDTH 21 0
BBX 23 37 -1 0
BITMAP
FE00FE00
FE00FE00
FE00FE00
FE00FE00
78003C00
78003C00
78003C00
78003C00
78003C00
78003C00
78003C00
78003C00
78003C00
78003C00
78003C00
78003C00
78003C00
78003C00
78003C00
78003C00
78003C00
78003C00
78003C00
78003C00
78003C00
78003C00
78003C00
78003C00
78003C00
7C007C00
3C007800
3C007800
3F00F800
1FFFF000
1FFFF000
0FFFE000
03FF8000
ENDCHAR
STARTCHAR 0056.uni0056
ENCODING 86
SWIDTH 974 0
DWIDTH 21 0
BBX 21 37 0 0
BITMAP
FE03F800
FE03F800
FE03F800
FE03F800
3C01E000
3C01E000
3C01E000
3C01E000
3C01E000
1E03C000
1E03C000
1E03C000
1E03C000
0F078000
0F078000
0F078000
0F078000
0F078000
078F0000
078F0000
078F0000
078F0000
078F0000
078E0000
03DE0000
03DE0000
03DE0000
03DE0000
01FC0000
01FC0000
01FC0000
01FC0000
00F80000
00F80000
00F80000
00F80000
00700000
ENDCHAR
STARTCHAR 0057.uni0057
ENCODING 87
SWIDTH 974 0
DWIDTH 21 0
BBX 23 37 -1 0
BITMAP
FE00FE00
FE00FE00
FE00FE00
FE00FE00
78003C00
78003C00
78003C00
3C007800
3C007800
3C007800
3C007800
3C007800
3C007800
3C007800
3C007800
3C007800
3C007800
3C387800
1E38F000
1E38F000
1E38F000
1E38F000
1E7CF000
1E7CF000
1EFEF000
1EFEF000
1FFFF000
1FFFF000
1FFFF000
0FFFE000
0FFFE000
0FFFE000
0F7DE000
0F7DE000
0F7DE000
0E7CE000
0E00E000
ENDCHAR
STARTCHAR 0058.uni0058
ENCODING 88
SWIDTH 974 0
DWIDTH 21 0
BBX 21 37 0 0
BITMAP
FE03F800
FE03F800
FE03F800
FE03F800
7C01F000
3C01E000
3E03E000
1E03C000
1F07C000
0F078000
0F8F8000
078F0000
07DF0000
03DE0000
03FE0000
01FC0000
01FC0000
00F80000
00F80000
00F80000
01FC0000
01FC0000
03FE0000
03DE0000
078F0000
078F0000
0F078000
0F078000
1E03C000
1E03C000
3C01E000
3C01E000
7800F000
FC01F800
FC01F800
FC01F800
FC01F800
ENDCHAR
STARTCHAR 0059.uni0059
ENCODING 89
SWIDTH 974 0
DWIDTH 21 0
BBX 22 37 0 0
BITMAP
FF03FC00
FF03FC00
FF03FC00
FF03FC00
3C00F000
1E01E000
1E01E000
0F03C000
0F03C000
07878000
07878000
03CF0000
03CF0000
01FE0000
01FE0000
00FC0000
00FC0000
00780000
00780000
00780000
00780000
00780000
00780000
00780000
00780000
00780000
00780000
00780000
00780000
00780000
00780000
00780000
00780000
03FF0000
03FF0000
03FF0000
03FF0000
ENDCHAR
STARTCHAR 005A.uni005A
ENCODING 90
SWIDTH 974 0
DWIDTH 21 0
BBX 21 37 0 0
BITMAP
FFFFF800
FFFFF800
FFFFF800
FFFFF800
F001F000
F001F000
F003E000
0003E000
0007C000
0007C000
000F8000
000F8000
001F0000
001F0000
003E0000
003E0000
007C0000
007C0000
00F80000
00F80000
01F00000
01F00000
03E00000
03E00000
07C00000
07C00000
0F800000
0F800000
1F000000
1F000000
3E007800
3E007800
7C007800
FFFFF800
FFFFF800
FFFFF800
FFFFF800
ENDCHAR
STARTCHAR 005B.uni005B
ENCODING 91
SWIDTH 974 0
DWIDTH 21 0
BBX 13 41 6 -4
BITMAP
FFF8
FFF8
FFF8
FFF8
F000
F000
F000
F000
F000
F000
F000
F000
F000
F000
F000
F000
F000
F000
F000
F000
F000
F000
F000
F000
F000
F000
F000
F000
F000
F000
F000
F000
F000
F000
F000
F000
F000
FFF8
FFF8
FFF8
FFF8
ENDCHAR
STARTCHAR 005C.uni005C
ENCODING 92
SWIDTH 974 0
DWIDTH 21 0
BBX 22 38 -1 -2
BITMAP
F0000000
F0000000
78000000
78000000
3C000000
3C000000
1E000000
1E000000
0F000000
0F000000
07800000
07800000
03C00000
03C00000
01E00000
01E00000
00F00000
00F00000
00780000
00780000
003C0000
003C0000
001E0000
001E0000
000F0000
000F0000
00078000
00078000
0003C000
0003C000
0001E000
0001E000
0000F000
0000F000
00007800
00007800
00003C00
00003C00
ENDCHAR
STARTCHAR 005D.uni005D
ENCODING 93
SWIDTH 974 0
DWIDTH 21 0
BBX 13 41 6 -4
BITMAP
FFF8
FFF8
FFF8
FFF8
0078
0078
0078
0078
0078
0078
0078
0078
0078
0078
0078
0078
0078
0078
0078
0078
0078
0078
0078
0078
0078
0078
0078
0078
0078
0078
0078
0078
0078
0078
0078
0078
0078
FFF8
FFF8
FFF8
FFF8
ENDCHAR
STARTCHAR 005E.uni005E
ENCODING 94
SWIDTH 974 0
DWIDTH 21 0
BBX 20 9 1 28
BITMAP
00F00000
01F80000
03FC0000
079E0000
0F0F0000
1E078000
3C03C000
7801E000
F000F000
ENDCHAR
STARTCHAR 005F.uni005F
ENCODING 95
SWIDTH 974 0
DWIDTH 21 0
BBX 21 4 0 -9
BITMAP
FFFFF800
FFFFF800
FFFFF800
FFFFF800
ENDCHAR
STARTCHAR 0060.uni0060
ENCODING 96
SWIDTH 974 0
DWIDTH 21 0
BBX 11 11 5 26
BITMAP
F000
F800
FC00
FE00
7F00
3F80
1FC0
0FE0
07E0
03E0
01E0
ENDCHAR
STARTCHAR 0061.uni0061
ENCODING 97
SWIDTH 974 0
DWIDTH 21 0
BBX 21 24 0 0
BITMAP
07FE0000
1FFF8000
3FFFC000
7FFFE000
7C03F000
F000F000
F000F000
F000F000
0000F000
03F8F000
0FFEF000
3FFFF000
7FFFF000
FE07F000
F803F000
F001F000
F000F000
F000F000
F801F000
FC03F000
7FFFF000
7FFFF800
3FFFF800
0FFE7800
ENDCHAR
STARTCHAR 0062.uni0062
ENCODING 98
SWIDTH 974 0
DWIDTH 21 0
BBX 21 37 0 0
BITMAP
FF000000
FF000000
FF000000
3C000000
3C000000
3C000000
3C000000
3C000000
3C000000
3C000000
3C000000
3C000000
3C000000
3C7E0000
3DFF8000
3FFFC000
3FFFE000
3F83F000
3F01F000
3E00F800
3C007800
3C007800
3C007800
3C007800
3C007800
3C007800
3C007800
3C007800
3C007800
3C007800
3E00F800
3F01F000
3F83F000
3FFFE000
FFFFC000
FFFF8000
FFFE0000
ENDCHAR
STARTCHAR 0063.uni0063
ENCODING 99
SWIDTH 974 0
DWIDTH 21 0
BBX 21 24 0 0
BITMAP
00FC0000
03FF0000
0FFFC000
1FFFE000
3F03F000
3E01F000
7C00F800
78007800
78007800
F0000000
F0000000
F0000000
F0000000
F0000000
F0000000
78007800
78007800
7C00F800
3E01F000
3F03F000
1FFFE000
0FFFC000
03FF0000
00FC0000
ENDCHAR
STARTCHAR 0064.uni0064
ENCODING 100
SWIDTH 974 0
DWIDTH 21 0
BBX 21 37 0 0
BITMAP
0007F800
0007F800
0007F800
0001E000
0001E000
0001E000
0001E000
0001E000
0001E000
0001E000
0001E000
0001E000
0001E000
03F1E000
0FFDE000
1FFFE000
3FFFE000
7E0FE000
7C07E000
F803E000
F001E000
F001E000
F001E000
F001E000
F001E000
F001E000
F001E000
F001E000
F001E000
F001E000
F803E000
7C07E000
7E0FE000
3FFFE000
1FFFF800
0FFFF800
03FFF800
ENDCHAR
STARTCHAR 0065.uni0065
ENCODING 101
SWIDTH 974 0
DWIDTH 21 0
BBX 21 24 0 0
BITMAP
00FC0000
03FF0000
0FFFC000
1FFFE000
3F03F000
3E01F000
7C00F800
78007800
78007800
F0007800
FFFFF800
FFFFF800
FFFFF800
FFFFF000
F0000000
78000000
78000000
7C00F800
3E01F800
3F03F000
1FFFE000
0FFFC000
03FF0000
00FC0000
ENDCHAR
STARTCHAR 0066.uni0066
ENCODING 102
SWIDTH 974 0
DWIDTH 21 0
BBX 19 37 1 0
BITMAP
003F8000
007F8000
00FF8000
00FF8000
01F80000
01F00000
03E00000
03E00000
03C00000
03C00000
03C00000
03C00000
03C00000
3FFF8000
3FFF8000
3FFF8000
3FFF8000
03C00000
03C00000
03C00000
03C00000
03C00000
03C00000
03C00000
03C00000
03C00000
03C00000
03C00000
03C00000
03C00000
03C00000
03C00000
03C00000
FFFFE000
FFFFE000
FFFFE000
FFFFE000
ENDCHAR
STARTCHAR 0067.uni0067
ENCODING 103
SWIDTH 974 0
DWIDTH 21 0
BBX 21 34 0 -10
BITMAP
01FC7800
07FF7800
0FFFF800
1FFFF800
3E03F800
7C01F800
7800F800
F0007800
F0007800
F0007800
F0007800
F0007800
F0007800
F0007800
F0007800
F0007800
F0007800
7800F800
7C01F800
3E03F800
1FFFF800
0FFFF800
07FF7800
01FC7800
00007800
F0007800
F0007800
F0007800
F800F800
7C01F000
7FFFF000
3FFFE000
1FFFC000
07FF0000
ENDCHAR
STARTCHAR 0068.uni0068
ENCODING 104
SWIDTH 974 0
DWIDTH 21 0
BBX 21 37 0 0
BITMAP
FC000000
FC000000
FC000000
FC000000
78000000
78000000
78000000
78000000
78000000
78000000
78000000
78000000
78000000
79FE0000
7BFF8000
7FFF8000
7FFFC000
7F87C000
7E03E000
7E03E000
7C01F000
7C01F000
7800F000
7800F000
7800F000
7800F000
7800F000
7800F000
7800F000
7800F000
7800F000
7800F000
7800F000
FC01F800
FC01F800
FC01F800
FC01F800
ENDCHAR
STARTCHAR 0069.uni0069
ENCODING 105
SWIDTH 974 0
DWIDTH 21 0
BBX 19 32 1 0
BITMAP
00E00000
01F00000
01F00000
01F00000
00E00000
00000000
00000000
00000000
3FF00000
3FF00000
3FF00000
3FF00000
00F00000
00F00000
00F00000
00F00000
00F00000
00F00000
00F00000
00F00000
00F00000
00F00000
00F00000
00F00000
00F00000
00F00000
00F00000
00F00000
FFFFE000
FFFFE000
FFFFE000
FFFFE000
ENDCHAR
STARTCHAR 006A.uni006A
ENCODING 106
SWIDTH 974 0
DWIDTH 21 0
BBX 19 42 1 -10
BITMAP
00070000
000F8000
000F8000
000F8000
00070000
00000000
00000000
00000000
FFFFE000
FFFFE000
FFFFE000
FFFFE000
E001E000
E001E000
E001E000
0001E000
0001E000
0001E000
0001E000
0001E000
0001E000
0001E000
0001E000
0001E000
0001E000
0001E000
0001E000
0001E000
0001E000
0001E000
0001E000
0001E000
0001E000
0001E000
0001E000
E001E000
F003E000
F807C000
FFFFC000
7FFF8000
3FFF0000
0FFC0000
ENDCHAR
STARTCHAR 006B.uni006B
ENCODING 107
SWIDTH 974 0
DWIDTH 21 0
BBX 21 37 0 0
BITMAP
FE000000
FE000000
FE000000
78000000
78000000
78000000
78000000
78000000
78000000
78000000
78000000
78000000
78000000
7801F800
7801F800
7800F800
7801F000
7803E000
7807C000
78078000
780F0000
781F0000
783E0000
787C0000
78780000
78FC0000
79FC0000
7BFE0000
7FDF0000
7F8F0000
7F8F8000
7F07C000
7E03E000
7C01F000
FE03F800
FE03F800
FE03F800
ENDCHAR
STARTCHAR 006C.uni006C
ENCODING 108
SWIDTH 974 0
DWIDTH 21 0
BBX 19 37 1 0
BITMAP
3FF00000
3FF00000
3FF00000
3FF00000
00F00000
00F00000
00F00000
00F00000
00F00000
00F00000
00F00000
00F00000
00F00000
00F00000
00F00000
00F00000
00F00000
00F00000
00F00000
00F00000
00F00000
00F00000
00F00000
00F00000
00F00000
00F00000
00F00000
00F00000
00F00000
00F00000
00F00000
00F00000
00F00000
FFFFE000
FFFFE000
FFFFE000
FFFFE000
ENDCHAR
STARTCHAR 006D.uni006D
ENCODING 109
SWIDTH 974 0
DWIDTH 21 0
BBX 22 24 0 0
BITMAP
F3070000
FFFFC000
FFFFE000
7FFFE000
7FFFF000
7CFDF000
7CFDF000
7CFDF000
7CFDF000
7878F000
7878F000
7878F000
7878F000
7878F000
7878F000
7878F000
7878F000
7878F000
7878F000
7878F000
7878F000
FCFDFC00
FCFDFC00
FCFDFC00
ENDCHAR
STARTCHAR 006E.uni006E
ENCODING 110
SWIDTH 974 0
DWIDTH 21 0
BBX 21 24 0 0
BITMAP
F9FC0000
FBFF8000
FFFFC000
7FFFC000
7E03E000
7C01E000
7C01F000
7800F000
7800F000
7800F000
7800F000
7800F000
7800F000
7800F000
7800F000
7800F000
7800F000
7800F000
7800F000
7800F000
FC01F800
FC01F800
FC01F800
FC01F800
ENDCHAR
STARTCHAR 006F.uni006F
ENCODING 111
SWIDTH 974 0
DWIDTH 21 0
BBX 21 24 0 0
BITMAP
00F80000
03FE0000
0FFF8000
1FFFC000
3F07E000
3E03E000
7C01F000
7800F000
7800F000
F0007800
F0007800
F0007800
F0007800
F0007800
F0007800
7800F000
7800F000
7C01F000
3E03E000
3F07E000
1FFFC000
0FFF8000
03FE0000
00F80000
ENDCHAR
STARTCHAR 0070.uni0070
ENCODING 112
SWIDTH 974 0
DWIDTH 21 0
BBX 21 34 0 -10
BITMAP
F87E0000
FDFF8000
FFFFC000
3FFFE000
3F83F000
3F01F000
3E00F800
3C007800
3C007800
3C007800
3C007800
3C007800
3C007800
3C007800
3C007800
3C007800
3C007800
3E00F800
3F01F000
3F83F000
3FFFE000
3FFFC000
3DFF8000
3C7E0000
3C000000
3C000000
3C000000
3C000000
3C000000
3C000000
3C000000
FF000000
FF000000
FF000000
ENDCHAR
STARTCHAR 0071.uni0071
ENCODING 113
SWIDTH 974 0
DWIDTH 21 0
BBX 21 34 0 -10
BITMAP
03F0F800
0FFDF800
1FFFF800
3FFFE000
7E0FE000
7C07E000
F803E000
F001E000
F001E000
F001E000
F001E000
F001E000
F001E000
F001E000
F001E000
F001E000
F001E000
F803E000
7C07E000
7E0FE000
3FFFE000
1FFFE000
0FFDE000
03F1E000
0001E000
0001E000
0001E000
0001E000
0001E000
0001E000
0001E000
0007F800
0007F800
0007F800
ENDCHAR
STARTCHAR 0072.uni0072
ENCODING 114
SWIDTH 974 0
DWIDTH 21 0
BBX 21 24 0 0
BITMAP
F8FE0000
F9FF8000
FBFFC000
7FFFE000
7F83E000
7F01F000
7E00F000
7C007800
7C007800
78000000
78000000
78000000
78000000
78000000
78000000
78000000
78000000
78000000
78000000
78000000
FC000000
FC000000
FC000000
FC000000
ENDCHAR
STARTCHAR 0073.uni0073
ENCODING 115
SWIDTH 974 0
DWIDTH 21 0
BBX 21 24 0 0
BITMAP
07FF0000
1FFFC000
7FFFF000
7FFFF000
F800F800
F0007800
F8000000
7F000000
3FC00000
1FF00000
07FC0000
00FF0000
007FC000
001FE000
0007F000
0001F000
F000F800
F0007800
F0007800
7801F800
7FFFF000
3FFFE000
1FFFC000
07FF0000
ENDCHAR
STARTCHAR 0074.uni0074
ENCODING 116
SWIDTH 974 0
DWIDTH 21 0
BBX 21 37 0 0
BITMAP
1E000000
1E000000
1E000000
1E000000
1E000000
1E000000
1E000000
1E000000
1E000000
1E000000
1E000000
1E000000
1E000000
FFFFC000
FFFFC000
FFFFC000
FFFFC000
1E000000
1E000000
1E000000
1E000000
1E000000
1E000000
1E000000
1E000000
1E000000
1E000000
1E000000
1E007800
1E007800
1E00F800
1E00F000
1F01F000
1FFFF000
0FFFE000
0FFFC000
03FF0000
ENDCHAR
STARTCHAR 0075.uni0075
ENCODING 117
SWIDTH 974 0
DWIDTH 21 0
BBX 21 24 0 0
BITMAP
FC01F800
FC01F800
FC01F800
7800F000
7800F000
7800F000
7800F000
7800F000
7800F000
7800F000
7800F000
7800F000
7800F000
7800F000
7800F000
7800F000
7800F000
7C01F000
3C01F000
3E03F000
1FFFF000
1FFFF800
0FFEF800
01FCF800
ENDCHAR
STARTCHAR 0076.uni0076
ENCODING 118
SWIDTH 974 0
DWIDTH 21 0
BBX 21 24 0 0
BITMAP
FC01F800
FC01F800
FC01F800
7800F000
7800F000
7800F000
3C01E000
3C01E000
3C01E000
1E03C000
1E03C000
1E03C000
0F078000
0F078000
0F078000
078F0000
078F0000
078F0000
03DE0000
03DE0000
03FE0000
01FC0000
01FC0000
01FC0000
ENDCHAR
STARTCHAR 0077.uni0077
ENCODING 119
SWIDTH 974 0
DWIDTH 21 0
BBX 21 24 0 0
BITMAP
FDFDF800
FDFDF800
FDFDF800
FDFDF800
78F8F000
78F8F000
78F8F000
78F8F000
78F8F000
78F8F000
78F8F000
3CF9E000
3CF9E000
3CF9E000
3CF9E000
3CF9E000
3CF9E000
3CF9E000
1FFFC000
1FFFC000
1FFFC000
1EFBC000
1EFBC000
1EFBC000
ENDCHAR
STARTCHAR 0078.uni0078
ENCODING 120
SWIDTH 974 0
DWIDTH 21 0
BBX 23 24 -1 0
BITMAP
F8003E00
F8003E00
78003C00
7C007C00
3E00F800
1F01F000
0F83E000
07C7C000
03EF8000
01FF0000
00FE0000
007C0000
007C0000
00FE0000
01FF0000
03EF8000
07C7C000
0F83E000
1F01F000
3E00F800
7C007C00
78003C00
F8003E00
F8003E00
ENDCHAR
STARTCHAR 0079.uni0079
ENCODING 121
SWIDTH 974 0
DWIDTH 21 0
BBX 21 34 0 -10
BITMAP
FC01F800
FC01F800
FC01F800
FC01F800
7800F000
7800F000
7800F000
3C01E000
3C01E000
3C01E000
1E03C000
1E03C000
1E03C000
0F078000
0F078000
0F078000
078F0000
078F0000
078F0000
03DE0000
03FE0000
03FE0000
01FE0000
00FC0000
003C0000
003C0000
003C0000
00780000
00780000
00F80000
07F00000
07F00000
07E00000
07C00000
ENDCHAR
STARTCHAR 007A.uni007A
ENCODING 122
SWIDTH 974 0
DWIDTH 21 0
BBX 21 24 0 0
BITMAP
FFFFF800
FFFFF800
FFFFF800
FFFFF800
F000F800
F001F800
F003F000
F007E000
000FC000
001F8000
003F0000
007E0000
00FC0000
01F80000
03F00000
07E00000
0FC07800
1F807800
3F007800
7E007800
FFFFF800
FFFFF800
FFFFF800
FFFFF800
ENDCHAR
STARTCHAR 007B.uni007B
ENCODING 123
SWIDTH 974 0
DWIDTH 21 0
BBX 16 42 3 -5
BITMAP
01FF
03FF
07FF
07FF
0F80
0F00
0F00
0F00
0F00
0F00
0F00
0F00
0F00
0F00
0F00
0F00
0F00
3F00
7E00
7C00
F800
F800
7C00
7E00
3F00
0F00
0F00
0F00
0F00
0F00
0F00
0F00
0F00
0F00
0F00
0F00
0F00
0F80
07FF
07FF
03FF
01FF
ENDCHAR
STARTCHAR 007C.uni007C
ENCODING 124
SWIDTH 974 0
DWIDTH 21 0
BBX 4 37 9 0
BITMAP
F000
F000
F000
F000
F000
F000
F000
F000
F000
F000
F000
F000
F000
F000
F000
F000
F000
F000
F000
F000
F000
F000
F000
F000
F000
F000
F000
F000
F000
F000
F000
F000
F000
F000
F000
F000
F000
ENDCHAR
STARTCHAR 007D.uni007D
ENCODING 125
SWIDTH 974 0
DWIDTH 21 0
BBX 16 42 3 -5
BITMAP
FF80
FFC0
FFE0
FFE0
01F0
00F0
00F0
00F0
00F0
00F0
00F0
00F0
00F0
00F0
00F0
00F0
00F0
00FC
007E
003E
001F
001F
003E
007E
00FC
00F0
00F0
00F0
00F0
00F0
00F0
00F0
00F0
00F0
00F0
00F0
00F0
01F0
FFE0
FFE0
FFC0
FF80
ENDCHAR
STARTCHAR 007E.uni007E
ENCODING 126
SWIDTH 974 0
DWIDTH 21 0
BBX 21 13 0 11
BITMAP
0F000000
3FC00000
7FE00000
7FF00000
F9F07800
F0F07800
F0F87800
F0787800
F07CF800
007FF000
003FF000
001FE000
00078000
ENDCHAR
STARTCHAR 00A0.uni00A0
ENCODING 160
SWIDTH 899 0
DWIDTH 19 0
BBX 0 0 0 0
BITMAP
ENDCHAR
STARTCHAR 00A1.uni00A1
ENCODING 161
SWIDTH 974 0
DWIDTH 21 0
BBX 7 37 7 -6
BITMAP
7C00
FE00
FE00
FE00
FE00
FE00
7C00
0000
0000
0000
7C00
7C00
7C00
7C00
7C00
7C00
7C00
7C00
7C00
7C00
7C00
7C00
7C00
7C00
7C00
7C00
7C00
7C00
7C00
7C00
7C00
7C00
7C00
7C00
7C00
7C00
7C00
ENDCHAR
STARTCHAR 00A2.uni00A2
ENCODING 162
SWIDTH 974 0
DWIDTH 21 0
BBX 20 45 0 -4
BITMAP
00700000
00700000
00700000
00700000
00F80000
03FE0000
07FF0000
0FFF8000
0F8F8000
1F07C000
1E03C000
3C01E000
3C01E000
7800F000
7800F000
7800F000
7800F000
F0000000
F0000000
F0000000
F0000000
F0000000
F0000000
F0000000
F0000000
F0000000
F0000000
F0000000
7800F000
7800F000
7800F000
7800F000
3C01E000
3C01E000
1E03C000
1F07C000
0F8F8000
0FFF8000
07FF0000
03FE0000
00F80000
00700000
00700000
00700000
00700000
ENDCHAR
STARTCHAR 00A3.uni00A3
ENCODING 163
SWIDTH 974 0
DWIDTH 21 0
BBX 21 37 0 0
BITMAP
07F00000
1FFC0000
3FFE0000
3FFF0000
7C1F0000
780F8000
78078000
F8078000
F0078000
F0078000
F0000000
F8000000
7E000000
3F000000
1F800000
0F800000
07C00000
FFFFC000
FFFFC000
FFFFC000
FFFFC000
03C00000
03C00000
03C00000
03C00000
03C00000
03C00000
03C00000
03C07800
03C07800
03C07800
03C0F800
03E1F800
FFFFF800
FFFFF000
FFFFE000
FFFF8000
ENDCHAR
STARTCHAR 00A4.uni00A4
ENCODING 164
SWIDTH 974 0
DWIDTH 21 0
BBX 23 37 -2 0
BITMAP
001FC000
007FF800
00FFFE00
01FFFE00
01F07E00
03E01E00
03C00000
07800000
07800000
0F000000
0F000000
0F000000
FFFC0000
FFFC0000
FFFC0000
FFFC0000
1E000000
1E000000
1E000000
1E000000
1E000000
FFFC0000
FFFC0000
FFFC0000
FFFC0000
0F000000
0F000000
0F000000
07800000
07800000
03C00000
03E01E00
01F07E00
01FFFE00
00FFFE00
007FF800
001FC000
ENDCHAR
STARTCHAR 00A5.uni00A5
ENCODING 165
SWIDTH 974 0
DWIDTH 21 0
BBX 20 37 1 0
BITMAP
FC03F000
FC03F000
FC03F000
FC03F000
7801E000
3C03C000
3C03C000
1E078000
1E078000
0F0F0000
0F0F0000
079E0000
079E0000
03FC0000
03FC0000
01F80000
01F80000
3FFFC000
3FFFC000
3FFFC000
00F00000
00F00000
00F00000
3FFFC000
3FFFC000
3FFFC000
00F00000
00F00000
00F00000
00F00000
00F00000
00F00000
00F00000
07FE0000
07FE0000
07FE0000
07FE0000
ENDCHAR
STARTCHAR 00A6.uni00A6
ENCODING 166
SWIDTH 974 0
DWIDTH 21 0
BBX 4 34 9 0
BITMAP
F000
F000
F000
F000
F000
F000
F000
F000
F000
F000
F000
F000
F000
F000
F000
0000
0000
0000
0000
0000
F000
F000
F000
F000
F000
F000
F000
F000
F000
F000
F000
F000
F000
F000
ENDCHAR
STARTCHAR 00A7.uni00A7
ENCODING 167
SWIDTH 974 0
DWIDTH 21 0
BBX 21 37 0 0
BITMAP
07E00000
1FF80000
3FFC0000
7FFE0000
781F0000
F00F0000
F0000000
F0000000
F0000000
F0F00000
F3F80000
FFFC0000
FFFE0000
FF1F0000
7E0F8000
7E07C000
3E03E000
1F01F000
0F80F000
07C0F800
03E0F800
01F1F800
00FFF800
007FF800
003F7800
001E7800
00007800
00007800
00007800
07807800
07807800
0780F000
07C1F000
03FFE000
01FFC000
00FF8000
003E0000
ENDCHAR
STARTCHAR 00A8.uni00A8
ENCODING 168
SWIDTH 974 0
DWIDTH 21 0
BBX 14 5 4 25
BITMAP
7038
F87C
F87C
F87C
7038
ENDCHAR
STARTCHAR 00A9.uni00A9
ENCODING 169
SWIDTH 974 0
DWIDTH 21 0
BBX 21 28 0 -1
BITMAP
07FF0000
1FFFC000
1FFFC000
3FFFE000
3C01E000
7800F000
7800F000
F0007800
F0F87800
F1FC7800
F3FE7800
F3FE7800
F3CE7800
F3C07800
F3C07800
F3CE7800
F3FE7800
F3FE7800
F1FC7800
F0F87800
F0007800
7800F000
7800F000
3C01E000
3FFFE000
1FFFC000
1FFFC000
07FF0000
ENDCHAR
STARTCHAR 00AA.uni00AA
ENCODING 170
SWIDTH 974 0
DWIDTH 21 0
BBX 11 13 5 11
BITMAP
3F00
7F80
FFC0
E3C0
81C0
3FC0
7FC0
FFC0
E1C0
E1C0
FFE0
FFE0
7EE0
ENDCHAR
STARTCHAR 00AB.uni00AB
ENCODING 171
SWIDTH 974 0
DWIDTH 21 0
BBX 18 20 0 3
BITMAP
0F03C000
0F03C000
1E078000
1E078000
3C0F0000
3C0F0000
781E0000
781E0000
F03C0000
F03C0000
F03C0000
F03C0000
781E0000
781E0000
3C0F0000
3C0F0000
1E078000
1E078000
0F03C000
0F03C000
ENDCHAR
STARTCHAR 00AC.uni00AC
ENCODING 172
SWIDTH 974 0
DWIDTH 21 0
BBX 16 10 2 8
BITMAP
FFFF
FFFF
FFFF
FFFF
000F
000F
000F
000F
000F
000F
ENDCHAR
STARTCHAR 00AD.uni00AD
ENCODING 173
SWIDTH 974 0
DWIDTH 21 0
BBX 15 4 3 11
BITMAP
FFFE
FFFE
FFFE
FFFE
ENDCHAR
STARTCHAR 00AE.uni00AE
ENCODING 174
SWIDTH 974 0
DWIDTH 21 0
BBX 21 28 0 -1
BITMAP
07FF0000
1FFFC000
1FFFC000
3FFFE000
3C01E000
7800F000
7800F000
F3FC7800
F3FE7800
F3FE7800
F3FE7800
F38E7800
F38E7800
F3FE7800
F3FE7800
F3FC7800
F3FC7800
F39C7800
F39E7800
F38E7800
F38E7800
7B8EF000
7800F000
3C01E000
3FFFE000
1FFFC000
1FFFC000
07FF0000
ENDCHAR
STARTCHAR 00AF.uni00AF
ENCODING 175
SWIDTH 974 0
DWIDTH 21 0
BBX 21 4 0 32
BITMAP
FFFFF800
FFFFF800
FFFFF800
FFFFF800
ENDCHAR
STARTCHAR 00B0.uni00B0
ENCODING 176
SWIDTH 974 0
DWIDTH 21 0
BBX 10 10 6 26
BITMAP
1E00
7F80
7F80
F3C0
E1C0
E1C0
F3C0
7F80
7F80
1E00
ENDCHAR
STARTCHAR 00B1.uni00B1
ENCODING 177
SWIDTH 974 0
DWIDTH 21 0
BBX 14 21 4 5
BITMAP
0780
0780
0780
0780
0780
FFFC
FFFC
FFFC
FFFC
0780
0780
0780
0780
0780
0000
0000
0000
FFFC
FFFC
FFFC
FFFC
ENDCHAR
STARTCHAR 00B2.uni00B2
ENCODING 178
SWIDTH 974 0
DWIDTH 21 0
BBX 13 18 6 14
BITMAP
0F00
3FC0
7FE0
F9F0
F0F0
E078
E078
00F8
01F0
03E0
07C0
0F80
1F00
3E00
7C78
FFF8
FFF8
FFF8
ENDCHAR
STARTCHAR 00B3.uni00B3
ENCODING 179
SWIDTH 974 0
DWIDTH 21 0
BBX 13 20 6 14
BITMAP
1FC0
7FF0
7FF8
F078
E038
E038
0078
00F8
07F0
07E0
07F0
00F8
0078
0078
E078
E078
F0F8
7FF8
7FF0
3FE0
ENDCHAR
STARTCHAR 00B4.uni00B4
ENCODING 180
SWIDTH 974 0
DWIDTH 21 0
BBX 8 8 6 29
BITMAP
0F00
1F00
3F00
7F00
FE00
FC00
F800
F000
ENDCHAR
STARTCHAR 00B5.uni00B5
ENCODING 181
SWIDTH 974 0
DWIDTH 21 0
BBX 21 34 0 -10
BITMAP
FC01F800
FC01F800
FC01F800
7800F000
7800F000
7800F000
7800F000
7800F000
7800F000
7800F000
7800F000
7800F000
7800F000
7800F000
7800F000
7C01F000
7C01F000
7E03F000
7E03F000
7FFFF000
7FFFF000
7FFFF800
7FFEF800
7BFCF800
78000000
78000000
78000000
78000000
78000000
78000000
78000000
78000000
78000000
78000000
ENDCHAR
STARTCHAR 00B6.uni00B6
ENCODING 182
SWIDTH 974 0
DWIDTH 21 0
BBX 24 37 -2 0
BITMAP
0FFFFF00
1FFFFF00
3FFFFF00
7FFFFF00
7C783C00
78783C00
F0783C00
F0783C00
F0783C00
F0783C00
F0783C00
F0783C00
F0783C00
F0783C00
F8783C00
7C783C00
7FF83C00
3FF83C00
3FF83C00
1FF83C00
00F83C00
00783C00
00783C00
00783C00
00783C00
00783C00
00783C00
00783C00
00783C00
00783C00
00783C00
00783C00
00783C00
03F83E00
03F83E00
03F83E00
03F83E00
ENDCHAR
STARTCHAR 00B7.uni00B7
ENCODING 183
SWIDTH 974 0
DWIDTH 21 0
BBX 6 6 8 10
BITMAP
7800
FC00
FC00
FC00
FC00
7800
ENDCHAR
STARTCHAR 00B8.uni00B8
ENCODING 184
SWIDTH 974 0
DWIDTH 21 0
BBX 9 12 5 -9
BITMAP
3C00
3C00
3F00
1F00
0F80
0380
0380
E380
FF80
FF80
FF80
7F00
ENDCHAR
STARTCHAR 00B9.uni00B9
ENCODING 185
SWIDTH 974 0
DWIDTH 21 0
BBX 12 18 6 14
BITMAP
0F80
1F80
3F80
7F80
FF80
F780
E780
0780
0780
0780
0780
0780
0780
0780
0780
3FF0
3FF0
3FF0
ENDCHAR
STARTCHAR 00BA.uni00BA
ENCODING 186
SWIDTH 974 0
DWIDTH 21 0
BBX 12 12 4 22
BITMAP
1F80
7FE0
7FE0
F0F0
E070
E070
E070
E070
F0F0
7FE0
7FE0
1F80
ENDCHAR
STARTCHAR 00BB.uni00BB
ENCODING 187
SWIDTH 974 0
DWIDTH 21 0
BBX 18 20 0 3
BITMAP
F03C0000
F03C0000
781E0000
781E0000
3C0F0000
3C0F0000
1E078000
1E078000
0F03C000
0F03C000
0F03C000
0F03C000
1E078000
1E078000
3C0F0000
3C0F0000
781E0000
781E0000
F03C0000
F03C0000
ENDCHAR
STARTCHAR 00BC.uni00BC
ENCODING 188
SWIDTH 974 0
DWIDTH 21 0
BBX 21 37 0 0
BITMAP
0F800000
1F800000
3F800000
7F800000
FF800000
F7800000
E7800000
07800000
07800000
07800000
07800000
07803000
07807000
0780E000
0781C000
1FE38000
1FE70000
1FEE0000
001C0000
00380000
0073E000
00E7E000
01CFE000
039FE000
073DE000
0E79E000
1CF1E000
39E1E000
73C1E000
63FFF800
03FFF800
03FFF800
0001E000
0001E000
0001E000
0001E000
0001E000
ENDCHAR
STARTCHAR 00BD.uni00BD
ENCODING 189
SWIDTH 974 0
DWIDTH 21 0
BBX 22 38 0 -1
BITMAP
0F800000
1F800000
3F800000
7F800000
FF800000
F7800000
E7800000
07800000
07800000
07800000
07801800
07803800
07807000
0780E000
0781C000
3FE38000
3FE70000
3FEE0000
001C0000
00380000
00778000
00EFE000
01DFF000
03BCF800
07787800
0E703C00
1C703C00
38007C00
7000F800
6001F000
0003E000
0007C000
000F8000
001F0000
003E3C00
007FFC00
007FFC00
007FFC00
ENDCHAR
STARTCHAR 00BE.uni00BE
ENCODING 190
SWIDTH 974 0
DWIDTH 21 0
BBX 21 39 0 0
BITMAP
1FC00000
7FF00000
7FF80000
F0780000
E0380000
E0380000
00780000
00F80000
07F00000
07E00000
07F00000
00F80000
00780000
00783000
E0787000
E078E000
F0F9C000
7FFB8000
7FF70000
3FEE0000
001C0000
00380000
0073E000
00E7E000
01CFE000
039FE000
073DE000
0E79E000
1CF1E000
39E1E000
73C1E000
63FFF800
03FFF800
03FFF800
0001E000
0001E000
0001E000
0001E000
0001E000
ENDCHAR
STARTCHAR 00BF.uni00BF
ENCODING 191
SWIDTH 974 0
DWIDTH 21 0
BBX 21 37 0 -7
BITMAP
00780000
00FC0000
00FC0000
00FC0000
00FC0000
00780000
00000000
00000000
00000000
00780000
00780000
00780000
00780000
00780000
00780000
00780000
00780000
007C0000
007E0000
003F0000
000FC000
0007E000
0001F000
0000F000
0000F800
00007800
F0007800
F0007800
F0007800
F800F800
7800F000
7C01F000
3F07E000
3FFFE000
1FFFC000
0FFF8000
03FE0000
ENDCHAR
STARTCHAR 00C0.uni00C0
ENCODING 192
SWIDTH 974 0
DWIDTH 21 0
BBX 23 45 0 0
BITMAP
3E000000
1F000000
0F800000
07C00000
03E00000
01F00000
00F80000
00000000
007C0000
007C0000
00FE0000
00FE0000
00FE0000
00FE0000
01FF0000
01EF0000
01EF0000
01EF0000
03EF8000
03C78000
03C78000
03C78000
07C7C000
0783C000
0783C000
0783C000
0F83E000
0F01E000
0F01E000
0F01E000
1F01F000
1E00F000
1E00F000
1FFFF000
3FFFF800
3FFFF800
3FFFF800
3C007800
7C007C00
7C007C00
78003C00
FC007E00
FC007E00
FC007E00
FC007E00
ENDCHAR
STARTCHAR 00C1.uni00C1
ENCODING 193
SWIDTH 974 0
DWIDTH 21 0
BBX 23 45 0 0
BITMAP
0001F000
0003E000
0007C000
000F8000
001F0000
003E0000
007C0000
00000000
007C0000
007C0000
00FE0000
00FE0000
00FE0000
00FE0000
01FF0000
01EF0000
01EF0000
01EF0000
03EF8000
03C78000
03C78000
03C78000
07C7C000
0783C000
0783C000
0783C000
0F83E000
0F01E000
0F01E000
0F01E000
1F01F000
1E00F000
1E00F000
1FFFF000
3FFFF800
3FFFF800
3FFFF800
3C007800
7C007C00
7C007C00
78003C00
FC007E00
FC007E00
FC007E00
FC007E00
ENDCHAR
STARTCHAR 00C2.uni00C2
ENCODING 194
SWIDTH 974 0
DWIDTH 21 0
BBX 23 46 0 0
BITMAP
00780000
00FC0000
01FE0000
03CF0000
07878000
0F03C000
1E01E000
3C00F000
00000000
007C0000
007C0000
00FE0000
00FE0000
00FE0000
00FE0000
01FF0000
01EF0000
01EF0000
01EF0000
03EF8000
03C78000
03C78000
03C78000
07C7C000
0783C000
0783C000
0783C000
0F83E000
0F01E000
0F01E000
0F01E000
1F01F000
1E00F000
1E00F000
1FFFF000
3FFFF800
3FFFF800
3FFFF800
3C007800
7C007C00
7C007C00
78003C00
FC007E00
FC007E00
FC007E00
FC007E00
ENDCHAR
STARTCHAR 00C3.uni00C3
ENCODING 195
SWIDTH 974 0
DWIDTH 21 0
BBX 23 46 0 0
BITMAP
07C1E000
0FE1E000
1FF1E000
3FF1E000
3EFBE000
3C7FC000
3C3F8000
3C1F0000
00000000
007C0000
007C0000
00FE0000
00FE0000
00FE0000
00FE0000
01FF0000
01EF0000
01EF0000
01EF0000
03EF8000
03C78000
03C78000
03C78000
07C7C000
0783C000
0783C000
0783C000
0F83E000
0F01E000
0F01E000
0F01E000
1F01F000
1E00F000
1E00F000
1FFFF000
3FFFF800
3FFFF800
3FFFF800
3C007800
7C007C00
7C007C00
78003C00
FC007E00
FC007E00
FC007E00
FC007E00
ENDCHAR
STARTCHAR 00C4.uni00C4
ENCODING 196
SWIDTH 974 0
DWIDTH 21 0
BBX 23 44 0 0
BITMAP
07038000
0F87C000
0F87C000
0F87C000
07038000
00000000
00000000
007C0000
007C0000
00FE0000
00FE0000
00FE0000
00FE0000
01FF0000
01EF0000
01EF0000
01EF0000
03EF8000
03C78000
03C78000
03C78000
07C7C000
0783C000
0783C000
0783C000
0F83E000
0F01E000
0F01E000
0F01E000
1F01F000
1E00F000
1E00F000
1FFFF000
3FFFF800
3FFFF800
3FFFF800
3C007800
7C007C00
7C007C00
78003C00
FC007E00
FC007E00
FC007E00
FC007E00
ENDCHAR
STARTCHAR 00C5.uni00C5
ENCODING 197
SWIDTH 974 0
DWIDTH 21 0
BBX 23 45 0 0
BITMAP
007C0000
00FE0000
00C60000
00C60000
00C60000
00FE0000
007C0000
00000000
007C0000
007C0000
00FE0000
00FE0000
00FE0000
00FE0000
01FF0000
01EF0000
01EF0000
01EF0000
03EF8000
03C78000
03C78000
03C78000
07C7C000
0783C000
0783C000
0783C000
0F83E000
0F01E000
0F01E000
0F01E000
1F01F000
1E00F000
1E00F000
1FFFF000
3FFFF800
3FFFF800
3FFFF800
3C007800
7C007C00
7C007C00
78003C00
FC007E00
FC007E00
FC007E00
FC007E00
ENDCHAR
STARTCHAR 00C6.uni00C6
ENCODING 198
SWIDTH 974 0
DWIDTH 21 0
BBX 21 37 0 0
BITMAP
00FFF800
00FFF800
00FFF800
00FFF800
01FE3800
01FE3800
01FE3800
01FE0000
03FE0000
03DE0000
03DE0000
03DE0000
079E0000
079E1800
079E1800
079FF800
0F1FF800
0F1FF800
0F1FF800
0F1E1800
1E1E1800
1E1E0000
1E1E0000
1E1E0000
3C1E0000
3C1E0000
3FFE0000
3FFE0000
7FFE0000
7FFE3800
781E3800
781E3800
F81E3800
F07FF800
F07FF800
F07FF800
F07FF800
ENDCHAR
STARTCHAR 00C7.uni00C7
ENCODING 199
SWIDTH 974 0
DWIDTH 21 0
BBX 20 47 0 -10
BITMAP
00F80000
03FE0000
07FF0000
0FFF8000
0F8F8000
1F07C000
1E03C000
3C01E000
3C01E000
7800F000
7800F000
7800F000
7800F000
F0000000
F0000000
F0000000
F0000000
F0000000
F0000000
F0000000
F0000000
F0000000
F0000000
F0000000
7800F000
7800F000
7800F000
7800F000
3C01E000
3C01E000
1E03C000
1F07C000
0F8F8000
0FFF8000
07FF0000
03FE0000
01F80000
00F00000
00780000
007C0000
003C0000
001E0000
000F0000
079F0000
07FF0000
07FE0000
03FC0000
ENDCHAR
STARTCHAR 00C8.uni00C8
ENCODING 200
SWIDTH 974 0
DWIDTH 21 0
BBX 21 45 0 0
BITMAP
3E000000
1F000000
0F800000
07C00000
03E00000
01F00000
00F80000
00000000
FFFFF800
FFFFF800
FFFFF800
FFFFF800
3C007800
3C007800
3C007800
3C000000
3C000000
3C000000
3C000000
3C000000
3C000000
3C03C000
3C03C000
3FFFC000
3FFFC000
3FFFC000
3FFFC000
3C03C000
3C03C000
3C000000
3C000000
3C000000
3C000000
3C000000
3C000000
3C000000
3C000000
3C000000
3C007800
3C007800
3C007800
FFFFF800
FFFFF800
FFFFF800
FFFFF800
ENDCHAR
STARTCHAR 00C9.uni00C9
ENCODING 201
SWIDTH 974 0
DWIDTH 21 0
BBX 21 45 0 0
BITMAP
0001F000
0003E000
0007C000
000F8000
001F0000
003E0000
007C0000
00000000
FFFFF800
FFFFF800
FFFFF800
FFFFF800
3C007800
3C007800
3C007800
3C000000
3C000000
3C000000
3C000000
3C000000
3C000000
3C03C000
3C03C000
3FFFC000
3FFFC000
3FFFC000
3FFFC000
3C03C000
3C03C000
3C000000
3C000000
3C000000
3C000000
3C000000
3C000000
3C000000
3C000000
3C000000
3C007800
3C007800
3C007800
FFFFF800
FFFFF800
FFFFF800
FFFFF800
ENDCHAR
STARTCHAR 00CA.uni00CA
ENCODING 202
SWIDTH 974 0
DWIDTH 21 0
BBX 21 46 0 0
BITMAP
00780000
00FC0000
01FE0000
03CF0000
07878000
0F03C000
1E01E000
3C00F000
00000000
FFFFF800
FFFFF800
FFFFF800
FFFFF800
3C007800
3C007800
3C007800
3C000000
3C000000
3C000000
3C000000
3C000000
3C000000
3C03C000
3C03C000
3FFFC000
3FFFC000
3FFFC000
3FFFC000
3C03C000
3C03C000
3C000000
3C000000
3C000000
3C000000
3C000000
3C000000
3C000000
3C000000
3C000000
3C007800
3C007800
3C007800
FFFFF800
FFFFF800
FFFFF800
FFFFF800
ENDCHAR
STARTCHAR 00CB.uni00CB
ENCODING 203
SWIDTH 974 0
DWIDTH 21 0
BBX 21 44 0 0
BITMAP
07038000
0F87C000
0F87C000
0F87C000
07038000
00000000
00000000
FFFFF800
FFFFF800
FFFFF800
FFFFF800
3C007800
3C007800
3C007800
3C000000
3C000000
3C000000
3C000000
3C000000
3C000000
3C03C000
3C03C000
3FFFC000
3FFFC000
3FFFC000
3FFFC000
3C03C000
3C03C000
3C000000
3C000000
3C000000
3C000000
3C000000
3C000000
3C000000
3C000000
3C000000
3C007800
3C007800
3C007800
FFFFF800
FFFFF800
FFFFF800
FFFFF800
ENDCHAR
STARTCHAR 00CC.uni00CC
ENCODING 204
SWIDTH 974 0
DWIDTH 21 0
BBX 20 45 1 0
BITMAP
7C000000
3E000000
1F000000
0F800000
07C00000
03E00000
01F00000
00000000
FFFFF000
FFFFF000
FFFFF000
FFFFF000
00F00000
00F00000
00F00000
00F00000
00F00000
00F00000
00F00000
00F00000
00F00000
00F00000
00F00000
00F00000
00F00000
00F00000
00F00000
00F00000
00F00000
00F00000
00F00000
00F00000
00F00000
00F00000
00F00000
00F00000
00F00000
00F00000
00F00000
00F00000
00F00000
FFFFF000
FFFFF000
FFFFF000
FFFFF000
ENDCHAR
STARTCHAR 00CD.uni00CD
ENCODING 205
SWIDTH 974 0
DWIDTH 21 0
BBX 20 45 1 0
BITMAP
0003E000
0007C000
000F8000
001F0000
003E0000
007C0000
00F80000
00000000
FFFFF000
FFFFF000
FFFFF000
FFFFF000
00F00000
00F00000
00F00000
00F00000
00F00000
00F00000
00F00000
00F00000
00F00000
00F00000
00F00000
00F00000
00F00000
00F00000
00F00000
00F00000
00F00000
00F00000
00F00000
00F00000
00F00000
00F00000
00F00000
00F00000
00F00000
00F00000
00F00000
00F00000
00F00000
FFFFF000
FFFFF000
FFFFF000
FFFFF000
ENDCHAR
STARTCHAR 00CE.uni00CE
ENCODING 206
SWIDTH 974 0
DWIDTH 21 0
BBX 20 46 1 0
BITMAP
00F00000
01F80000
03FC0000
079E0000
0F0F0000
1E078000
3C03C000
7801E000
00000000
FFFFF000
FFFFF000
FFFFF000
FFFFF000
00F00000
00F00000
00F00000
00F00000
00F00000
00F00000
00F00000
00F00000
00F00000
00F00000
00F00000
00F00000
00F00000
00F00000
00F00000
00F00000
00F00000
00F00000
00F00000
00F00000
00F00000
00F00000
00F00000
00F00000
00F00000
00F00000
00F00000
00F00000
00F00000
FFFFF000
FFFFF000
FFFFF000
FFFFF000
ENDCHAR
STARTCHAR 00CF.uni00CF
ENCODING 207
SWIDTH 974 0
DWIDTH 21 0
BBX 20 43 1 0
BITMAP
070E0000
0F9F0000
0F9F0000
0F9F0000
070E0000
00000000
FFFFF000
FFFFF000
FFFFF000
FFFFF000
00F00000
00F00000
00F00000
00F00000
00F00000
00F00000
00F00000
00F00000
00F00000
00F00000
00F00000
00F00000
00F00000
00F00000
00F00000
00F00000
00F00000
00F00000
00F00000
00F00000
00F00000
00F00000
00F00000
00F00000
00F00000
00F00000
00F00000
00F00000
00F00000
FFFFF000
FFFFF000
FFFFF000
FFFFF000
ENDCHAR
STARTCHAR 00D0.uni00D0
ENCODING 208
SWIDTH 974 0
DWIDTH 21 0
BBX 21 37 0 0
BITMAP
FFF80000
FFFE0000
FFFF0000
FFFF8000
3C0F8000
3C07C000
3C03C000
3C01E000
3C01E000
3C00F000
3C00F000
3C00F000
3C00F000
3C007800
3C007800
3C007800
FF807800
FF807800
FF807800
FF807800
3C007800
3C007800
3C007800
3C007800
3C00F000
3C00F000
3C00F000
3C00F000
3C01E000
3C01E000
3C03C000
3C07C000
3C0F8000
FFFF8000
FFFF0000
FFFE0000
FFF80000
ENDCHAR
STARTCHAR 00D1.uni00D1
ENCODING 209
SWIDTH 974 0
DWIDTH 21 0
BBX 21 46 0 0
BITMAP
07C1E000
0FE1E000
1FF1E000
3FF1E000
3EFBE000
3C7FC000
3C3F8000
3C1F0000
00000000
FE03F800
FE03F800
FE03F800
FE03F800
7800F000
7C00F000
7C00F000
7E00F000
7E00F000
7F00F000
7F00F000
7F80F000
7F80F000
7BC0F000
7BC0F000
79E0F000
79E0F000
78F0F000
78F0F000
7878F000
7878F000
783CF000
783CF000
781EF000
781EF000
780FF000
780FF000
7807F000
7807F000
7803F000
7803F000
7801F000
7801F000
FE03F800
FE03F800
FE03F800
FE03F800
ENDCHAR
STARTCHAR 00D2.uni00D2
ENCODING 210
SWIDTH 974 0
DWIDTH 21 0
BBX 21 45 0 0
BITMAP
3E000000
1F000000
0F800000
07C00000
03E00000
01F00000
00F80000
00000000
00F80000
03FE0000
07FF0000
0FFF8000
0F8F8000
1F07C000
1E03C000
3C01E000
3C01E000
7800F000
7800F000
7800F000
7800F000
F0007800
F0007800
F0007800
F0007800
F0007800
F0007800
F0007800
F0007800
F0007800
F0007800
F0007800
7800F000
7800F000
7800F000
7800F000
3C01E000
3C01E000
1E03C000
1F07C000
0F8F8000
0FFF8000
07FF0000
03FE0000
00F80000
ENDCHAR
STARTCHAR 00D3.uni00D3
ENCODING 211
SWIDTH 974 0
DWIDTH 21 0
BBX 21 45 0 0
BITMAP
0001F000
0003E000
0007C000
000F8000
001F0000
003E0000
007C0000
00000000
00F80000
03FE0000
07FF0000
0FFF8000
0F8F8000
1F07C000
1E03C000
3C01E000
3C01E000
7800F000
7800F000
7800F000
7800F000
F0007800
F0007800
F0007800
F0007800
F0007800
F0007800
F0007800
F0007800
F0007800
F0007800
F0007800
7800F000
7800F000
7800F000
7800F000
3C01E000
3C01E000
1E03C000
1F07C000
0F8F8000
0FFF8000
07FF0000
03FE0000
00F80000
ENDCHAR
STARTCHAR 00D4.uni00D4
ENCODING 212
SWIDTH 974 0
DWIDTH 21 0
BBX 21 46 0 0
BITMAP
00780000
00FC0000
01FE0000
03CF0000
07878000
0F03C000
1E01E000
3C00F000
00000000
00F80000
03FE0000
07FF0000
0FFF8000
0F8F8000
1F07C000
1E03C000
3C01E000
3C01E000
7800F000
7800F000
7800F000
7800F000
F0007800
F0007800
F0007800
F0007800
F0007800
F0007800
F0007800
F0007800
F0007800
F0007800
F0007800
7800F000
7800F000
7800F000
7800F000
3C01E000
3C01E000
1E03C000
1F07C000
0F8F8000
0FFF8000
07FF0000
03FE0000
00F80000
ENDCHAR
STARTCHAR 00D5.uni00D5
ENCODING 213
SWIDTH 974 0
DWIDTH 21 0
BBX 21 44 0 0
BITMAP
003C7800
0078F000
00F1E000
01E3C000
03C78000
078F0000
00000000
00F80000
03FE0000
07FF0000
0FFF8000
0F8F8000
1F07C000
1E03C000
3C01E000
3C01E000
7800F000
7800F000
7800F000
7800F000
F0007800
F0007800
F0007800
F0007800
F0007800
F0007800
F0007800
F0007800
F0007800
F0007800
F0007800
7800F000
7800F000
7800F000
7800F000
3C01E000
3C01E000
1E03C000
1F07C000
0F8F8000
0FFF8000
07FF0000
03FE0000
00F80000
ENDCHAR
STARTCHAR 00D6.uni00D6
ENCODING 214
SWIDTH 974 0
DWIDTH 21 0
BBX 21 44 0 0
BITMAP
07038000
0F87C000
0F87C000
0F87C000
07038000
00000000
00000000
00F80000
03FE0000
07FF0000
0FFF8000
0F8F8000
1F07C000
1E03C000
3C01E000
3C01E000
7800F000
7800F000
7800F000
7800F000
F0007800
F0007800
F0007800
F0007800
F0007800
F0007800
F0007800
F0007800
F0007800
F0007800
F0007800
7800F000
7800F000
7800F000
7800F000
3C01E000
3C01E000
1E03C000
1F07C000
0F8F8000
0FFF8000
07FF0000
03FE0000
00F80000
ENDCHAR
STARTCHAR 00D7.uni00D7
ENCODING 215
SWIDTH 974 0
DWIDTH 21 0
BBX 20 20 1 2
BITMAP
E0007000
F000F000
F801F000
7C03E000
3E07C000
1F0F8000
0F9F0000
07FE0000
03FC0000
01F80000
01F80000
03FC0000
07FE0000
0F9F0000
1F0F8000
3E07C000
7C03E000
F801F000
F000F000
E0007000
ENDCHAR
STARTCHAR 00D8.uni00D8
ENCODING 216
SWIDTH 974 0
DWIDTH 21 0
BBX 21 24 0 0
BITMAP
00F80800
03FE1800
0FFFB800
1FFFF800
3F07F000
3E03E000
7C03F000
7807F000
780FF000
F01E7800
F03C7800
F0787800
F0F07800
F1E07800
F3C07800
7F80F000
7F00F000
7E01F000
3E03E000
7F07E000
FFFFC000
EFFF8000
C3FE0000
80F80000
ENDCHAR
STARTCHAR 00D9.uni00D9
ENCODING 217
SWIDTH 974 0
DWIDTH 21 0
BBX 23 45 -1 0
BITMAP
1F000000
0F800000
07C00000
03E00000
01F00000
00F80000
007C0000
00000000
FE00FE00
FE00FE00
FE00FE00
FE00FE00
78003C00
78003C00
78003C00
78003C00
78003C00
78003C00
78003C00
78003C00
78003C00
78003C00
78003C00
78003C00
78003C00
78003C00
78003C00
78003C00
78003C00
78003C00
78003C00
78003C00
78003C00
78003C00
78003C00
78003C00
78003C00
7C007C00
3C007800
3C007800
3F00F800
1FFFF000
1FFFF000
0FFFE000
03FF8000
ENDCHAR
STARTCHAR 00DA.uni00DA
ENCODING 218
SWIDTH 974 0
DWIDTH 21 0
BBX 23 45 -1 0
BITMAP
0001F000
0003E000
0007C000
000F8000
001F0000
003E0000
007C0000
00000000
FE00FE00
FE00FE00
FE00FE00
FE00FE00
78003C00
78003C00
78003C00
78003C00
78003C00
78003C00
78003C00
78003C00
78003C00
78003C00
78003C00
78003C00
78003C00
78003C00
78003C00
78003C00
78003C00
78003C00
78003C00
78003C00
78003C00
78003C00
78003C00
78003C00
78003C00
7C007C00
3C007800
3C007800
3F00F800
1FFFF000
1FFFF000
0FFFE000
03FF8000
ENDCHAR
STARTCHAR 00DB.uni00DB
ENCODING 219
SWIDTH 974 0
DWIDTH 21 0
BBX 23 44 -1 0
BITMAP
001E3C00
003C7800
0078F000
00F1E000
01E3C000
03C78000
00000000
FE00FE00
FE00FE00
FE00FE00
FE00FE00
78003C00
78003C00
78003C00
78003C00
78003C00
78003C00
78003C00
78003C00
78003C00
78003C00
78003C00
78003C00
78003C00
78003C00
78003C00
78003C00
78003C00
78003C00
78003C00
78003C00
78003C00
78003C00
78003C00
78003C00
78003C00
7C007C00
3C007800
3C007800
3F00F800
1FFFF000
1FFFF000
0FFFE000
03FF8000
ENDCHAR
STARTCHAR 00DC.uni00DC
ENCODING 220
SWIDTH 974 0
DWIDTH 21 0
BBX 23 44 -1 0
BITMAP
0381C000
07C3E000
07C3E000
07C3E000
0381C000
00000000
00000000
FE00FE00
FE00FE00
FE00FE00
FE00FE00
78003C00
78003C00
78003C00
78003C00
78003C00
78003C00
78003C00
78003C00
78003C00
78003C00
78003C00
78003C00
78003C00
78003C00
78003C00
78003C00
78003C00
78003C00
78003C00
78003C00
78003C00
78003C00
78003C00
78003C00
78003C00
7C007C00
3C007800
3C007800
3F00F800
1FFFF000
1FFFF000
0FFFE000
03FF8000
ENDCHAR
STARTCHAR 00DD.uni00DD
ENCODING 221
SWIDTH 974 0
DWIDTH 21 0
BBX 22 44 0 0
BITMAP
0003C000
00078000
000F0000
001E0000
003C0000
00780000
00000000
FF03FC00
FF03FC00
FF03FC00
3C00F000
3C00F000
1E01E000
1E01E000
0F03C000
0F03C000
07878000
07878000
03CF0000
03CF0000
01FE0000
01FE0000
00FC0000
00FC0000
00780000
00780000
00780000
00780000
00780000
00780000
00780000
00780000
00780000
00780000
00780000
00780000
00780000
00780000
00780000
00780000
00780000
03FF0000
03FF0000
03FF0000
ENDCHAR
STARTCHAR 00DE.uni00DE
ENCODING 222
SWIDTH 974 0
DWIDTH 21 0
BBX 21 37 0 0
BITMAP
FFF80000
FFF80000
FFF80000
FFF80000
3C000000
3C000000
3C000000
3C000000
3C000000
3FFE0000
3FFF0000
3FFF8000
3FFFE000
3C07F000
3C01F000
3C00F000
3C00F800
3C007800
3C007800
3C007800
3C007800
3C00F800
3C00F000
3C01F000
3C07F000
3FFFE000
3FFF8000
3FFF0000
3FFE0000
3C000000
3C000000
3C000000
3C000000
FFF80000
FFF80000
FFF80000
FFF80000
ENDCHAR
STARTCHAR 00DF.uni00DF
ENCODING 223
SWIDTH 974 0
DWIDTH 21 0
BBX 21 37 0 0
BITMAP
07F80000
0FFF0000
0FFF8000
1FFFC000
1E07C000
3C03E000
3C01E000
3C01E000
3C01E000
3C01E000
3C03E000
3C07C000
3C0FC000
3FFF8000
3FFF0000
3FFE0000
3FFF0000
3FFF8000
3C0FC000
3C03E000
3C01E000
3C00F000
3C00F000
3C00F000
3C007800
3C007800
3C007800
3C007800
3C007800
3C007800
3C007800
3C78F800
3C7DF000
7C7FF000
FC7FE000
FC3FC000
F81F0000
ENDCHAR
STARTCHAR 00E0.uni00E0
ENCODING 224
SWIDTH 974 0
DWIDTH 21 0
BBX 21 34 0 0
BITMAP
3E000000
1F000000
0F800000
07C00000
03E00000
01F00000
00F80000
00000000
00000000
00000000
07FE0000
1FFF8000
3FFFC000
7FFFE000
7C03F000
F000F000
F000F000
F000F000
0000F000
03F8F000
0FFEF000
3FFFF000
7FFFF000
FE07F000
F803F000
F001F000
F000F000
F000F000
F801F000
FC03F000
7FFFF000
7FFFF800
3FFFF800
0FFE7800
ENDCHAR
STARTCHAR 00E1.uni00E1
ENCODING 225
SWIDTH 974 0
DWIDTH 21 0
BBX 21 33 0 0
BITMAP
0003E000
0007C000
000F8000
001F0000
003E0000
007C0000
00F80000
00000000
00000000
07FE0000
1FFF8000
3FFFC000
7FFFE000
7C03F000
F000F000
F000F000
F000F000
0000F000
03F8F000
0FFEF000
3FFFF000
7FFFF000
FE07F000
F803F000
F001F000
F000F000
F000F000
F801F000
FC03F000
7FFFF000
7FFFF800
3FFFF800
0FFE7800
ENDCHAR
STARTCHAR 00E2.uni00E2
ENCODING 226
SWIDTH 974 0
DWIDTH 21 0
BBX 21 35 0 0
BITMAP
00300000
00780000
00FC0000
01FE0000
03CF0000
07878000
0F03C000
1E01E000
3C00F000
00000000
00000000
07FE0000
1FFF8000
3FFFC000
7FFFE000
7C03F000
F000F000
F000F000
F000F000
0000F000
03F8F000
0FFEF000
3FFFF000
7FFFF000
FE07F000
F803F000
F001F000
F000F000
F000F000
F801F000
FC03F000
7FFFF000
7FFFF800
3FFFF800
0FFE7800
ENDCHAR
STARTCHAR 00E3.uni00E3
ENCODING 227
SWIDTH 974 0
DWIDTH 21 0
BBX 21 34 0 0
BITMAP
07C1E000
0FE1E000
1FF1E000
3FF1E000
3EFBE000
3C7FC000
3C3F8000
3C1F0000
00000000
00000000
07FE0000
1FFF8000
3FFFC000
7FFFE000
7C03F000
F000F000
F000F000
F000F000
0000F000
03F8F000
0FFEF000
3FFFF000
7FFFF000
FE07F000
F803F000
F001F000
F000F000
F000F000
F801F000
FC03F000
7FFFF000
7FFFF800
3FFFF800
0FFE7800
ENDCHAR
STARTCHAR 00E4.uni00E4
ENCODING 228
SWIDTH 974 0
DWIDTH 21 0
BBX 21 32 0 0
BITMAP
07038000
0F87C000
0F87C000
0F87C000
07038000
00000000
00000000
00000000
07FE0000
1FFF8000
3FFFC000
7FFFE000
7C03F000
F000F000
F000F000
F000F000
0000F000
03F8F000
0FFEF000
3FFFF000
7FFFF000
FE07F000
F803F000
F001F000
F000F000
F000F000
F801F000
FC03F000
7FFFF000
7FFFF800
3FFFF800
0FFE7800
ENDCHAR
STARTCHAR 00E5.uni00E5
ENCODING 229
SWIDTH 974 0
DWIDTH 21 0
BBX 21 34 0 0
BITMAP
00F80000
01FC0000
018C0000
018C0000
018C0000
01FC0000
00F80000
00000000
00000000
00000000
07FE0000
1FFF8000
3FFFC000
7FFFE000
7C03F000
F000F000
F000F000
F000F000
0000F000
03F8F000
0FFEF000
3FFFF000
7FFFF000
FE07F000
F803F000
F001F000
F000F000
F000F000
F801F000
FC03F000
7FFFF000
7FFFF800
3FFFF800
0FFE7800
ENDCHAR
STARTCHAR 00E6.uni00E6
ENCODING 230
SWIDTH 974 0
DWIDTH 21 0
BBX 21 24 0 0
BITMAP
3F83C000
7FC7E000
FFFFF000
FFFFF000
F0FC7800
C0783800
00783800
01F83800
0FFFF800
0FFFF800
3FFFF800
3FFFF800
78780000
F0780000
F0780000
F0780000
F0780000
F0780000
F0783800
F0783800
F87C7800
7FFFF000
3FFFF000
0F87C000
ENDCHAR
STARTCHAR 00E7.uni00E7
ENCODING 231
SWIDTH 974 0
DWIDTH 21 0
BBX 21 34 0 -10
BITMAP
00FC0000
03FF0000
0FFFC000
1FFFE000
3F03F000
3E01F000
7C00F800
78007800
78007800
F0000000
F0000000
F0000000
F0000000
F0000000
F0000000
78007800
78007800
7C00F800
3E01F000
3F03F000
1FFFE000
0FFFC000
03FF0000
00FC0000
00F00000
00780000
007C0000
003C0000
001E0000
000F0000
079F0000
07FF0000
07FE0000
03FC0000
ENDCHAR
STARTCHAR 00E8.uni00E8
ENCODING 232
SWIDTH 974 0
DWIDTH 21 0
BBX 21 34 0 0
BITMAP
3E000000
1F000000
0F800000
07C00000
03E00000
01F00000
00F80000
00000000
00000000
00000000
00FC0000
03FF0000
0FFFC000
1FFFE000
3F03F000
3E01F000
7C00F800
78007800
78007800
F0007800
FFFFF800
FFFFF800
FFFFF800
FFFFF000
F0000000
78000000
78000000
7C00F800
3E01F800
3F03F000
1FFFE000
0FFFC000
03FF0000
00FC0000
ENDCHAR
STARTCHAR 00E9.uni00E9
ENCODING 233
SWIDTH 974 0
DWIDTH 21 0
BBX 21 33 0 0
BITMAP
0003E000
0007C000
000F8000
001F0000
003E0000
007C0000
00F80000
00000000
00000000
00FC0000
03FF0000
0FFFC000
1FFFE000
3F03F000
3E01F000
7C00F800
78007800
78007800
F0007800
FFFFF800
FFFFF800
FFFFF800
FFFFF000
F0000000
78000000
78000000
7C00F800
3E01F800
3F03F000
1FFFE000
0FFFC000
03FF0000
00FC0000
ENDCHAR
STARTCHAR 00EA.uni00EA
ENCODING 234
SWIDTH 974 0
DWIDTH 21 0
BBX 21 35 0 0
BITMAP
00300000
00780000
00FC0000
01FE0000
03CF0000
07878000
0F03C000
1E01E000
3C00F000
00000000
00000000
00FC0000
03FF0000
0FFFC000
1FFFE000
3F03F000
3E01F000
7C00F800
78007800
78007800
F0007800
FFFFF800
FFFFF800
FFFFF800
FFFFF000
F0000000
78000000
78000000
7C00F800
3E01F800
3F03F000
1FFFE000
0FFFC000
03FF0000
00FC0000
ENDCHAR
STARTCHAR 00EB.uni00EB
ENCODING 235
SWIDTH 974 0
DWIDTH 21 0
BBX 21 31 0 0
BITMAP
07038000
0F87C000
0F87C000
0F87C000
07038000
00000000
00000000
00FC0000
03FF0000
0FFFC000
1FFFE000
3F03F000
3E01F000
7C00F800
78007800
78007800
F0007800
FFFFF800
FFFFF800
FFFFF800
FFFFF000
F0000000
78000000
78000000
7C00F800
3E01F800
3F03F000
1FFFE000
0FFFC000
03FF0000
00FC0000
ENDCHAR
STARTCHAR 00EC.uni00EC
ENCODING 236
SWIDTH 974 0
DWIDTH 21 0
BBX 19 34 1 0
BITMAP
7C000000
3E000000
1F000000
0F800000
07C00000
03E00000
01F00000
00000000
00000000
00000000
3FF00000
3FF00000
3FF00000
3FF00000
00F00000
00F00000
00F00000
00F00000
00F00000
00F00000
00F00000
00F00000
00F00000
00F00000
00F00000
00F00000
00F00000
00F00000
00F00000
00F00000
FFFFE000
FFFFE000
FFFFE000
FFFFE000
ENDCHAR
STARTCHAR 00ED.uni00ED
ENCODING 237
SWIDTH 974 0
DWIDTH 21 0
BBX 19 33 1 0
BITMAP
0007C000
000F8000
001F0000
003E0000
007C0000
00F80000
01F00000
00000000
00000000
3FF00000
3FF00000
3FF00000
3FF00000
00F00000
00F00000
00F00000
00F00000
00F00000
00F00000
00F00000
00F00000
00F00000
00F00000
00F00000
00F00000
00F00000
00F00000
00F00000
00F00000
FFFFE000
FFFFE000
FFFFE000
FFFFE000
ENDCHAR
STARTCHAR 00EE.uni00EE
ENCODING 238
SWIDTH 974 0
DWIDTH 21 0
BBX 19 35 1 0
BITMAP
00600000
00F00000
01F80000
03FC0000
079E0000
0F0F0000
1E078000
3C03C000
7801E000
00000000
00000000
3FF00000
3FF00000
3FF00000
3FF00000
00F00000
00F00000
00F00000
00F00000
00F00000
00F00000
00F00000
00F00000
00F00000
00F00000
00F00000
00F00000
00F00000
00F00000
00F00000
00F00000
FFFFE000
FFFFE000
FFFFE000
FFFFE000
ENDCHAR
STARTCHAR 00EF.uni00EF
ENCODING 239
SWIDTH 974 0
DWIDTH 21 0
BBX 19 32 1 0
BITMAP
1C070000
3E0F8000
3E0F8000
3E0F8000
1C070000
00000000
00000000
00000000
3FF00000
3FF00000
3FF00000
3FF00000
00F00000
00F00000
00F00000
00F00000
00F00000
00F00000
00F00000
00F00000
00F00000
00F00000
00F00000
00F00000
00F00000
00F00000
00F00000
00F00000
FFFFE000
FFFFE000
FFFFE000
FFFFE000
ENDCHAR
STARTCHAR 00F0.uni00F0
ENCODING 240
SWIDTH 974 0
DWIDTH 21 0
BBX 21 37 0 0
BITMAP
000E0000
001E0000
0FBE0000
1FFC0000
3FF80000
7FF80000
F9FC0000
F3FE0000
E7FF0000
0F9F0000
0F0F8000
0E078000
0007C000
0003C000
03FFE000
0FFFE000
1FFFE000
3FFFF000
3E03F000
7C01F800
7800F800
F8007800
F0007800
F0007800
F0007800
F0007800
F0007800
F0007800
F0007800
F0007800
F800F800
7C01F000
7E03F000
3FFFE000
1FFFC000
0FFF8000
03FE0000
ENDCHAR
STARTCHAR 00F1.uni00F1
ENCODING 241
SWIDTH 974 0
DWIDTH 21 0
BBX 21 34 0 0
BITMAP
07C1E000
0FE1E000
1FF1E000
3FF1E000
3EFBE000
3C7FC000
3C3F8000
3C1F0000
00000000
00000000
F9FC0000
FBFF8000
FFFFC000
7FFFC000
7E03E000
7C01E000
7C01F000
7800F000
7800F000
7800F000
7800F000
7800F000
7800F000
7800F000
7800F000
7800F000
7800F000
7800F000
7800F000
7800F000
FC01F800
FC01F800
FC01F800
FC01F800
ENDCHAR
STARTCHAR 00F2.uni00F2
ENCODING 242
SWIDTH 974 0
DWIDTH 21 0
BBX 21 34 0 0
BITMAP
3E000000
1F000000
0F800000
07C00000
03E00000
01F00000
00F80000
00000000
00000000
00000000
00F80000
03FE0000
0FFF8000
1FFFC000
3F07E000
3E03E000
7C01F000
7800F000
7800F000
F0007800
F0007800
F0007800
F0007800
F0007800
F0007800
7800F000
7800F000
7C01F000
3E03E000
3F07E000
1FFFC000
0FFF8000
03FE0000
00F80000
ENDCHAR
STARTCHAR 00F3.uni00F3
ENCODING 243
SWIDTH 974 0
DWIDTH 21 0
BBX 21 33 0 0
BITMAP
0003E000
0007C000
000F8000
001F0000
003E0000
007C0000
00F80000
00000000
00000000
00F80000
03FE0000
0FFF8000
1FFFC000
3F07E000
3E03E000
7C01F000
7800F000
7800F000
F0007800
F0007800
F0007800
F0007800
F0007800
F0007800
7800F000
7800F000
7C01F000
3E03E000
3F07E000
1FFFC000
0FFF8000
03FE0000
00F80000
ENDCHAR
STARTCHAR 00F4.uni00F4
ENCODING 244
SWIDTH 974 0
DWIDTH 21 0
BBX 21 35 0 0
BITMAP
00300000
00780000
00FC0000
01FE0000
03CF0000
07878000
0F03C000
1E01E000
3C00F000
00000000
00000000
00F80000
03FE0000
0FFF8000
1FFFC000
3F07E000
3E03E000
7C01F000
7800F000
7800F000
F0007800
F0007800
F0007800
F0007800
F0007800
F0007800
7800F000
7800F000
7C01F000
3E03E000
3F07E000
1FFFC000
0FFF8000
03FE0000
00F80000
ENDCHAR
STARTCHAR 00F5.uni00F5
ENCODING 245
SWIDTH 974 0
DWIDTH 21 0
BBX 21 33 0 0
BITMAP
003C7800
0078F000
00F1E000
01E3C000
03C78000
078F0000
00000000
00000000
00000000
00F80000
03FE0000
0FFF8000
1FFFC000
3F07E000
3E03E000
7C01F000
7800F000
7800F000
F0007800
F0007800
F0007800
F0007800
F0007800
F0007800
7800F000
7800F000
7C01F000
3E03E000
3F07E000
1FFFC000
0FFF8000
03FE0000
00F80000
ENDCHAR
STARTCHAR 00F6.uni00F6
ENCODING 246
SWIDTH 974 0
DWIDTH 21 0
BBX 21 32 0 0
BITMAP
07038000
0F87C000
0F87C000
0F87C000
07038000
00000000
00000000
00000000
00F80000
03FE0000
0FFF8000
1FFFC000
3F07E000
3E03E000
7C01F000
7800F000
7800F000
F0007800
F0007800
F0007800
F0007800
F0007800
F0007800
7800F000
7800F000
7C01F000
3E03E000
3F07E000
1FFFC000
0FFF8000
03FE0000
00F80000
ENDCHAR
STARTCHAR 00F7.uni00F7
ENCODING 247
SWIDTH 974 0
DWIDTH 21 0
BBX 17 22 2 2
BITMAP
01C00000
03E00000
03E00000
03E00000
01C00000
00000000
00000000
00000000
00000000
FFFF8000
FFFF8000
FFFF8000
FFFF8000
00000000
00000000
00000000
00000000
01C00000
03E00000
03E00000
03E00000
01C00000
ENDCHAR
STARTCHAR 00F8.uni00F8
ENCODING 248
SWIDTH 974 0
DWIDTH 21 0
BBX 21 24 0 0
BITMAP
00F80800
03FE1800
0FFFB800
1FFFF800
3F07F000
3E03E000
7C03F000
7807F000
780FF000
F01E7800
F03C7800
F0787800
F0F07800
F1E07800
F3C07800
7F80F000
7F00F000
7E01F000
3E03E000
7F07E000
FFFFC000
EFFF8000
C3FE0000
80F80000
ENDCHAR
STARTCHAR 00F9.uni00F9
ENCODING 249
SWIDTH 974 0
DWIDTH 21 0
BBX 21 34 0 0
BITMAP
3E000000
1F000000
0F800000
07C00000
03E00000
01F00000
00F80000
00000000
00000000
00000000
FC01F800
FC01F800
FC01F800
7800F000
7800F000
7800F000
7800F000
7800F000
7800F000
7800F000
7800F000
7800F000
7800F000
7800F000
7800F000
7800F000
7800F000
7C01F000
3C01F000
3E03F000
1FFFF000
1FFFF800
0FFEF800
01FCF800
ENDCHAR
STARTCHAR 00FA.uni00FA
ENCODING 250
SWIDTH 974 0
DWIDTH 21 0
BBX 21 33 0 0
BITMAP
0003E000
0007C000
000F8000
001F0000
003E0000
007C0000
00F80000
00000000
00000000
FC01F800
FC01F800
FC01F800
7800F000
7800F000
7800F000
7800F000
7800F000
7800F000
7800F000
7800F000
7800F000
7800F000
7800F000
7800F000
7800F000
7800F000
7C01F000
3C01F000
3E03F000
1FFFF000
1FFFF800
0FFEF800
01FCF800
ENDCHAR
STARTCHAR 00FB.uni00FB
ENCODING 251
SWIDTH 974 0
DWIDTH 21 0
BBX 21 33 0 0
BITMAP
003C7800
0078F000
00F1E000
01E3C000
03C78000
078F0000
00000000
00000000
00000000
FC01F800
FC01F800
FC01F800
7800F000
7800F000
7800F000
7800F000
7800F000
7800F000
7800F000
7800F000
7800F000
7800F000
7800F000
7800F000
7800F000
7800F000
7C01F000
3C01F000
3E03F000
1FFFF000
1FFFF800
0FFEF800
01FCF800
ENDCHAR
STARTCHAR 00FC.uni00FC
ENCODING 252
SWIDTH 974 0
DWIDTH 21 0
BBX 21 31 0 0
BITMAP
07038000
0F87C000
0F87C000
0F87C000
07038000
00000000
00000000
FC01F800
FC01F800
FC01F800
7800F000
7800F000
7800F000
7800F000
7800F000
7800F000
7800F000
7800F000
7800F000
7800F000
7800F000
7800F000
7800F000
7800F000
7C01F000
3C01F000
3E03F000
1FFFF000
1FFFF800
0FFEF800
01FCF800
ENDCHAR
STARTCHAR 00FD.uni00FD
ENCODING 253
SWIDTH 974 0
DWIDTH 21 0
BBX 21 44 0 -10
BITMAP
7C000000
3E000000
1F000000
0F800000
07C00000
03E00000
01F00000
00000000
00000000
00000000
FC01F800
FC01F800
FC01F800
FC01F800
7800F000
7800F000
7800F000
3C01E000
3C01E000
3C01E000
1E03C000
1E03C000
1E03C000
0F078000
0F078000
0F078000
078F0000
078F0000
078F0000
03DE0000
03FE0000
03FE0000
01FC0000
00FC0000
003C0000
003C0000
003C0000
00780000
00780000
00F80000
07F80000
07F80000
07F00000
07E00000
ENDCHAR
STARTCHAR 00FE.uni00FE
ENCODING 254
SWIDTH 974 0
DWIDTH 21 0
BBX 18 24 0 0
BITMAP
FFFC0000
FFFC0000
FFFC0000
FFFC0000
3C000000
3C000000
3FFF0000
3FFF8000
3FFFC000
3FFFC000
3C03C000
3C03C000
3C03C000
3FFFC000
3FFFC000
3FFF8000
3FFF0000
3C000000
3C000000
3C000000
FFFC0000
FFFC0000
FFFC0000
FFFC0000
ENDCHAR
STARTCHAR 00FF.uni00FF
ENCODING 255
SWIDTH 974 0
DWIDTH 21 0
BBX 21 42 0 -10
BITMAP
07038000
0F87C000
0F87C000
0F87C000
07038000
00000000
00000000
00000000
FC01F800
FC01F800
FC01F800
FC01F800
7800F000
7800F000
7800F000
3C01E000
3C01E000
3C01E000
1E03C000
1E03C000
1E03C000
0F078000
0F078000
0F078000
078F0000
078F0000
078F0000
03DE0000
03FE0000
03FE0000
01FC0000
00FC0000
003C0000
003C0000
003C0000
00780000
00780000
00F80000
07F80000
07F80000
07F00000
07E00000
ENDCHAR
ENDFONT
